<svg width="371px" height="54px" viewBox="273 262 371 54" version="1.1" xmlns="http://www.w3.org/2000/svg" xmlns:xlink="http://www.w3.org/1999/xlink">
    <!-- Generator: Sketch 41.2 (35397) - http://www.bohemiancoding.com/sketch -->
    <desc>Created with Sketch.</desc>
    <defs></defs>
    <g id="Group" stroke="none" stroke-width="1" fill="none" fill-rule="evenodd" transform="translate(273.000000, 262.000000)">
        <g id="Group-3">
            <path d="M242.94,8.24 L242.94,52 L237.02,52 L237.02,44.32 C233.499982,49.0133568 229.420023,51.7866624 224.78,52.64 C223.339993,52.906668 221.793342,53.04 220.14,53.04 C212.939964,53.04 207.100022,50.5866912 202.62,45.68 C198.673314,41.4666456 196.7,36.3200304 196.7,30.24 C196.7,23.306632 199.126642,17.6000224 203.98,13.12 C208.300022,9.1733136 213.553302,7.2 219.74,7.2 C226.726702,7.2 232.273313,9.8399736 236.38,15.12 L237.02,16 L237.02,8.24 L242.94,8.24 Z M219.9,12.64 C214.673307,12.64 210.35335,14.6133136 206.94,18.56 C204.753322,21.0133456 203.420002,23.8666504 202.94,27.12 C202.779999,28.0266712 202.7,28.9333288 202.7,29.84 C202.7,35.440028 204.726646,39.973316 208.78,43.44 C212.03335,46.2133472 215.846645,47.6 220.22,47.6 C225.446693,47.6 229.713317,45.5733536 233.02,41.52 C235.68668,38.2666504 237.02,34.4000224 237.02,29.92 C237.02,24.4799728 235.02002,20.0533504 231.02,16.64 C227.873318,13.97332 224.166688,12.64 219.9,12.64 Z M274.3,7.2 C281.340035,7.2 287.046645,9.6533088 291.42,14.56 C295.153352,18.826688 297.02,24.0533024 297.02,30.24 C297.02,37.3333688 294.620024,43.0666448 289.82,47.44 L287.26,49.44 C283.579982,51.840012 279.420023,53.04 274.78,53.04 C267.473297,53.04 261.580022,50.5600248 257.1,45.6 C253.259981,41.333312 251.34,36.0800312 251.34,29.84 C251.34,23.1199664 253.739976,17.5733552 258.54,13.2 C262.860022,9.19998 268.113302,7.2 274.3,7.2 Z M274.3,12.64 C268.806639,12.64 264.406683,14.6933128 261.1,18.8 C259.17999,21.2533456 257.980002,24.079984 257.5,27.28 C257.393333,28.1866712 257.34,29.0933288 257.34,30 C257.34,35.9733632 259.473312,40.6399832 263.74,44 C266.780015,46.400012 270.406646,47.6 274.62,47.6 C280.113361,47.6 284.433318,45.4933544 287.58,41.28 C289.873345,38.1866512 291.02,34.5333544 291.02,30.32 C291.02,24.453304 288.993354,19.8133504 284.94,16.4 C282.593322,14.4266568 279.846682,13.2266688 276.7,12.8 C275.899996,12.6933328 275.100004,12.64 274.3,12.64 Z M305.42,52 L305.42,8.24 L311.34,8.24 L311.34,13.28 C314.00668,9.813316 317.206648,7.8400024 320.94,7.36 C321.793338,7.2533328 322.699995,7.2 323.66,7.2 C329.313362,7.2 333.686651,9.3866448 336.78,13.76 C337.206669,14.3466696 337.606665,14.9599968 337.98,15.6 C341.39335,10.2133064 346.13997,7.386668 352.22,7.12 L353.18,7.12 C358.993362,7.12 363.473318,9.11998 366.62,13.12 C366.726667,13.1733336 366.806666,13.2533328 366.86,13.36 C369.206678,16.293348 370.38,20.5066392 370.38,26 L370.38,52 L364.46,52 L364.46,26.64 C364.46,22.2666448 363.660008,18.9600112 362.06,16.72 C359.97999,13.9466528 356.913354,12.56 352.86,12.56 C348.593312,12.56 345.366678,14.1333176 343.18,17.28 L342.94,17.6 C341.553326,19.6266768 340.86,22.63998 340.86,26.64 L340.86,52 L334.94,52 L334.94,26.48 C334.94,22.0533112 334.033342,18.773344 332.22,16.64 C329.979989,13.97332 326.940019,12.64 323.1,12.64 C317.819974,12.64 314.273342,15.0133096 312.46,19.76 C311.71333,21.6800096 311.34,23.9199872 311.34,26.48 L311.34,52 L305.42,52 Z" id="aom" fill="#181818"></path>
            <path d="M96.74,31.54 L126.86,31.54 C126.539998,36.5800252 124.600018,41.1599794 121.04,45.28 C116.639978,50.280025 110.880036,52.78 103.76,52.78 C97.159967,52.78 91.560023,50.6600212 86.96,46.42 C82.4399774,42.2999794 80.0200016,37.2000304 79.7,31.12 C79.6599998,30.6399976 79.64,30.1800022 79.64,29.74 C79.64,23.539969 81.7799786,18.2600218 86.06,13.9 C90.3000212,9.5399782 95.5799684,7.2200014 101.9,6.94 C102.300002,6.8999998 102.719998,6.88 103.16,6.88 C109.360031,6.88 114.599979,8.679982 118.88,12.28 C121.320012,14.3200102 123.079995,16.7199862 124.16,19.48 L119.18,19.48 C116.739988,15.1599784 112.960026,12.4600054 107.84,11.38 C106.439993,11.0999986 105.000007,10.96 103.52,10.96 C97.919972,10.96 93.2600186,12.8399812 89.54,16.6 C85.939982,20.2400182 84.14,24.659974 84.14,29.86 C84.14,35.1800266 86.039981,39.6599818 89.84,43.3 C93.6000188,46.900018 98.179973,48.7 103.58,48.7 C108.900027,48.7 113.319982,46.9400176 116.84,43.42 C119.320012,40.9399876 120.879997,38.3200138 121.52,35.56 L96.74,35.56 L96.74,31.54 Z M133.88,52 L133.88,7.66 L138.32,7.66 L138.32,52 L133.88,52 Z M162.62,31.54 L192.74,31.54 C192.419998,36.5800252 190.480018,41.1599794 186.92,45.28 C182.519978,50.280025 176.760036,52.78 169.64,52.78 C163.039967,52.78 157.440023,50.6600212 152.84,46.42 C148.319977,42.2999794 145.900002,37.2000304 145.58,31.12 C145.54,30.6399976 145.52,30.1800022 145.52,29.74 C145.52,23.539969 147.659979,18.2600218 151.94,13.9 C156.180021,9.5399782 161.459968,7.2200014 167.78,6.94 C168.180002,6.8999998 168.599998,6.88 169.04,6.88 C175.240031,6.88 180.479979,8.679982 184.76,12.28 C187.200012,14.3200102 188.959995,16.7199862 190.04,19.48 L185.06,19.48 C182.619988,15.1599784 178.840026,12.4600054 173.72,11.38 C172.319993,11.0999986 170.880007,10.96 169.4,10.96 C163.799972,10.96 159.140019,12.8399812 155.42,16.6 C151.819982,20.2400182 150.02,24.659974 150.02,29.86 C150.02,35.1800266 151.919981,39.6599818 155.72,43.3 C159.480019,46.900018 164.059973,48.7 169.46,48.7 C174.780027,48.7 179.199982,46.9400176 182.72,43.42 C185.200012,40.9399876 186.759997,38.3200138 187.4,35.56 L162.62,35.56 L162.62,31.54 Z" id="GIG" stroke="#181818" fill="#181818"></path>
            <rect id="Rectangle" fill="#5796C3" x="0" y="0" width="54" height="54" rx="9"></rect>
            <g id="Group-2" transform="translate(3.000000, 2.000000)" fill="#FFFFFF">
                <circle id="Oval" cx="24.5" cy="3.5" r="3.5"></circle>
                <circle id="Oval-Copy" cx="39.5" cy="9.5" r="3.5"></circle>
                <circle id="Oval-Copy-2" cx="45.5" cy="24.5" r="3.5"></circle>
                <circle id="Oval-Copy-6" cx="39.5" cy="39.5" r="3.5"></circle>
                <circle id="Oval-Copy-8" cx="9.5" cy="9.5" r="3.5"></circle>
                <circle id="Oval-Copy-9" cx="16.5" cy="16.5" r="3.5"></circle>
                <circle id="Oval-Copy-10" cx="32.5" cy="16.5" r="3.5"></circle>
                <circle id="Oval-Copy-12" cx="16.5" cy="31.5" r="3.5"></circle>
                <circle id="Oval-Copy-11" cx="32.5" cy="31.5" r="3.5"></circle>
                <circle id="Oval-Copy-7" cx="9.5" cy="39.5" r="3.5"></circle>
                <circle id="Oval-Copy-3" cx="3.5" cy="24.5" r="3.5"></circle>
                <circle id="Oval-Copy-4" cx="24.5" cy="24.5" r="3.5"></circle>
                <circle id="Oval-Copy-5" cx="24.5" cy="45.5" r="3.5"></circle>
            </g>
        </g>
    </g>
</svg>
