<svg width="279px" height="74px" viewBox="0 0 279 74" version="1.1" xmlns="http://www.w3.org/2000/svg" xmlns:xlink="http://www.w3.org/1999/xlink">
    <!-- Generator: Sketch 41.2 (35397) - http://www.bohemiancoding.com/sketch -->
    <desc>Created with Sketch.</desc>
    <defs>
        <polygon id="path-1" points="0.06 0.427993556 0.06 57.896 141.382 57.896 141.382 0.427993556 0.06 0.427993556"></polygon>
    </defs>
    <g id="Greylock_Logotype_Spot-PMS-Color" stroke="none" stroke-width="1" fill="none" fill-rule="evenodd">
        <path d="M71.536,33.401 C73.078,26.212 79.076,20.949 86.206,20.949 C93.269,20.949 99.332,26.212 100.958,33.401 L71.536,33.401 Z M86.206,16.428 C75.344,16.428 66.628,25.739 66.608,37.122 C66.628,48.512 75.447,57.498 86.651,57.525 L86.776,57.525 C95.823,57.525 102.294,52.739 104.966,44.393 L105.341,43.231 L100.675,43.231 L100.467,43.808 C98.658,48.544 95.1,53.026 86.651,53.061 C78.305,53.043 71.591,46.713 71.089,37.858 L105.798,37.858 L105.809,36.978 L105.809,36.704 C105.809,26.87 97.903,16.455 86.206,16.428 L86.206,16.428 Z" id="Fill-1" fill="#006FAC"></path>
        <polygon id="Fill-2" fill="#006FAC" points="146.95 56.646 151.401 56.646 151.401 0.693 146.95 0.693"></polygon>
        <path d="M177.165,53.212 C168.886,53.196 162.029,45.991 162.029,37.122 C162.029,28.017 168.895,20.753 177.165,20.729 C185.516,20.753 192.31,28.007 192.313,37.122 C192.313,45.991 185.527,53.196 177.165,53.212 Z M177.165,16.428 C166.363,16.438 157.589,25.735 157.573,37.122 C157.589,48.365 166.374,57.521 177.165,57.525 C188.027,57.521 196.828,48.365 196.84,37.122 C196.828,25.735 188.032,16.428 177.165,16.428 L177.165,16.428 Z" id="Fill-3" fill="#006FAC"></path>
        <path d="M220.441,20.949 C226.806,20.97 231.755,24.491 234.047,30.164 L234.264,30.711 L239.003,30.711 L238.616,29.556 C235.971,21.654 229.109,16.412 220.441,16.428 C209.57,16.428 200.859,25.739 200.844,37.122 C200.859,48.365 209.581,57.525 220.441,57.525 L220.48,57.525 C229.125,57.525 236.052,52.287 238.616,44.393 L238.998,43.231 L234.325,43.231 L234.112,43.808 C231.956,49.522 227.039,53.038 220.441,53.061 C212.151,53.043 205.3,45.914 205.3,37.122 C205.3,28.17 212.156,20.97 220.441,20.949" id="Fill-4" fill="#006FAC"></path>
        <polyline id="Fill-5" fill="#006FAC" points="261.774 32.066 277.019 17.373 270.619 17.373 249.858 37.438 249.858 0.693 245.402 0.693 245.402 56.646 249.858 56.646 249.858 43.607 258.52 35.275 272.906 56.646 278.308 56.646 261.774 32.066"></polyline>
        <path d="M64.451,16.438 C60.119,16.438 56.317,17.891 53.371,20.508 C53.008,20.85 52.675,21.204 52.365,21.584 L52.365,17.373 L47.839,17.373 L47.839,56.646 L52.365,56.646 L52.365,33.103 C52.365,29.397 53.74,25.995 56.218,23.795 C58.099,21.96 61.026,20.729 64.924,20.726 C65.276,20.726 65.661,20.759 66.031,20.779 L66.031,16.514 C65.493,16.466 64.967,16.438 64.451,16.438" id="Fill-6" fill="#006FAC"></path>
        <g id="Group-10" transform="translate(0.000000, 16.000000)">
            <mask id="mask-2" fill="white">
                <use xlink:href="#path-1"></use>
            </mask>
            <g id="Clip-8"></g>
            <path d="M141.382,1.373 L136.659,1.373 L124.521,33.407 L112.53,1.373 L107.733,1.373 L122.186,39.683 L120.931,43.504 C119.039,48.383 116.448,50.089 112.307,50.132 C111.628,50.132 110.9,50.078 110.129,49.98 L110.129,54.31 C111.009,54.441 111.879,54.538 112.725,54.538 L112.813,54.538 C118.334,54.538 122.806,51.321 125.125,45.072 L124.304,44.759 L125.125,45.072 L141.382,1.373" id="Fill-7" fill="#006FAC" mask="url(#mask-2)"></path>
            <path d="M19.599,37.069 C11.225,37.043 4.456,29.919 4.444,21.122 C4.456,12.163 11.24,4.97 19.599,4.949 C28.356,4.977 34.625,11.609 34.659,21.122 C34.625,30.475 28.367,37.038 19.599,37.069 Z M34.659,1.373 L34.659,7.936 C31.275,3.328 25.901,0.423 19.599,0.428 C8.72,0.428 0.005,9.739 0,21.122 C0.005,32.36 8.73,41.591 19.599,41.596 C25.901,41.596 31.275,38.699 34.659,34.108 L34.659,37.642 C34.599,47.405 28.915,53.376 19.745,53.441 C14.213,53.419 9.992,51.29 7.492,47.541 L2.374,47.541 C5.319,54.05 11.604,57.896 19.652,57.896 L19.745,57.896 C25.483,57.896 30.366,55.865 33.78,52.277 C37.207,48.699 39.131,43.617 39.131,37.642 L39.131,1.373 L34.659,1.373 L34.659,1.373 Z" id="Fill-9" fill="#006FAC" mask="url(#mask-2)"></path>
        </g>
    </g>
</svg>
