<svg width="163px" height="27px" viewBox="13 35 163 27" version="1.1" xmlns="http://www.w3.org/2000/svg" xmlns:xlink="http://www.w3.org/1999/xlink">
    <!-- Generator: Sketch 41.2 (35397) - http://www.bohemiancoding.com/sketch -->
    <desc>Created with Sketch.</desc>
    <defs></defs>
    <g id="Clipped" stroke="none" stroke-width="1" fill="none" fill-rule="evenodd" transform="translate(13.000000, 35.000000)">
        <g id="Group">
            <g transform="translate(37.134700, 0.685500)" id="Shape" fill="#414142">
                <path d="M6.54,21.928 C11.972,21.928 14.828,19.632 14.828,13.864 L14.828,13.528 C14.828,8.096 12.112,6.444 9.312,6.444 C7.436,6.444 6.12,6.976 5.084,7.816 L4.944,7.816 L4.944,0.928 L0.044,0.928 L0.044,20.892 C1.724,21.508 3.964,21.928 6.54,21.928 Z M6.82,18.54 C6.008,18.54 5.364,18.372 4.944,18.204 L4.944,10.7 C5.392,10.476 6.232,10.196 7.044,10.196 C8.864,10.196 9.788,10.952 9.788,14.032 L9.788,14.48 C9.788,17.756 8.444,18.54 6.82,18.54 Z M23.843,21.9 C26.615,21.9 28.435,21.228 29.555,20.556 L29.555,17.336 C28.407,17.812 26.895,18.232 25.103,18.232 C22.639,18.232 21.351,17.728 21.015,15.544 L30.171,15.544 L30.171,14.144 C30.171,9.244 28.323,6.444 23.311,6.444 C18.831,6.444 15.947,9.328 15.947,13.948 L15.947,14.312 C15.947,19.24 18.551,21.9 23.843,21.9 Z M23.367,9.72 C24.739,9.72 25.439,10.532 25.439,12.52 L20.987,12.52 C21.211,10.308 22.191,9.72 23.367,9.72 Z M35.632,21.9 C37.48,21.9 38.796,21.368 39.412,20.472 L39.58,20.472 L39.916,21.62 L44.004,21.62 L44.004,11.008 C44.004,7.648 41.736,6.444 38.068,6.444 C35.744,6.444 33.784,6.724 32.244,7.312 L32.244,10.672 C33.28,10.42 34.708,10.224 36.192,10.224 C38.376,10.224 39.104,10.672 39.104,12.016 L39.104,12.604 L36.388,12.968 C33.14,13.416 30.984,14.452 30.984,17.588 C30.984,20.444 32.888,21.9 35.632,21.9 Z M37.312,18.792 C36.416,18.792 35.688,18.428 35.688,17.196 C35.688,16.048 36.192,15.6 37.368,15.516 L39.104,15.348 L39.104,18.204 C38.768,18.54 38.068,18.792 37.312,18.792 Z M52.011,21.844 C53.551,21.844 54.671,21.536 55.259,21.228 L55.259,18.064 C54.867,18.148 54.307,18.232 53.831,18.232 C52.627,18.232 52.151,17.896 52.151,16.86 L52.151,10.14 L55.203,10.14 L55.203,6.724 L52.151,6.724 L52.151,3.196 L47.223,3.196 L47.223,6.724 L45.403,6.724 L45.403,10.14 L47.223,10.14 L47.223,17.56 C47.223,20.836 48.987,21.844 52.011,21.844 Z"></path>
            </g>
            <g transform="translate(0.134700, 0.685500)" id="Shape" fill="#9E0039">
                <path d="M8.148,21.9 C12.488,21.9 15.764,19.38 15.764,14.256 L15.764,13.892 C15.764,9.048 13.104,6.444 8.148,6.444 C3.836,6.444 0.532,8.964 0.532,14.06 L0.532,14.424 C0.532,19.184 3.192,21.9 8.148,21.9 Z M8.176,18.512 C6.664,18.512 5.6,17.812 5.6,14.368 L5.6,13.808 C5.6,10.784 6.496,9.804 8.12,9.804 C9.632,9.804 10.724,10.448 10.724,13.976 L10.724,14.508 C10.724,17.56 9.8,18.512 8.176,18.512 Z M18.312,21.62 L23.212,21.62 L23.212,10.168 L26.74,10.168 L26.74,21.62 L31.64,21.62 L31.64,10.168 L34.608,10.168 L34.608,6.724 L31.64,6.724 L31.64,5.828 C31.64,4.596 32.284,4.092 33.684,4.092 C34.3,4.092 34.916,4.176 35.308,4.26 L35.308,1.124 C34.748,0.9 33.544,0.648 32.004,0.648 C28.896,0.648 26.74,2.104 26.74,5.268 L26.74,6.724 L23.212,6.724 L23.212,5.968 C23.212,4.792 23.772,4.288 24.752,4.288 C25.284,4.288 25.592,4.344 25.844,4.4 L25.844,1.236 C25.312,1.068 24.556,0.872 23.156,0.872 C20.356,0.872 18.312,2.384 18.312,5.52 L18.312,6.724 L16.436,6.724 L16.436,10.168 L18.312,10.168 L18.312,21.62 Z"></path>
            </g>
            <g transform="translate(98.634700, 1.998000)" id="Shape" fill="#414142">
                <path d="M5.52916212,24.74 C9.86423288,24.74 11.6034529,22.7411949 11.6034529,20.5866388 C11.6034529,18.1205806 9.89019139,17.2899083 7.65775974,17.2899083 L3.7639836,17.2899083 C2.7516018,17.2899083 2.15455613,16.7188212 2.15455613,15.8621904 C2.15455613,15.1613107 2.59585076,14.5383065 3.0890624,14.0970119 C3.81590062,14.460431 4.67253137,14.616182 5.60703764,14.616182 C8.25480541,14.616182 10.2016935,13.1884641 10.2016935,10.5666549 L10.2016935,10.3330283 C10.2016935,8.85339335 9.60464781,7.81505305 8.51439049,7.19204887 L11.5255774,7.19204887 L11.5255774,6.51712767 L7.24242362,6.51712767 C6.74921197,6.38733513 6.20408331,6.33541812 5.63299615,6.33541812 C2.93331136,6.33541812 0.986423288,7.86697007 0.986423288,10.3849453 L0.986423288,10.5666549 C0.986423288,12.0722483 1.60942747,13.1625056 2.64776777,13.8374268 C1.86901255,14.460431 1.34984239,15.2911032 1.34984239,16.095817 C1.34984239,17.0303232 2.02476359,17.6792859 2.7256433,17.8090785 L2.7256433,17.8609955 C1.22004986,18.4580412 0,19.52234 0,21.209643 C-3.6889258e-14,23.104614 1.50559344,24.74 5.52916212,24.74 Z M5.50320361,24.0131618 C1.99880508,24.0131618 0.856630751,22.7152364 0.856630751,21.1317674 C0.856630751,19.5482985 2.0507221,18.5878337 3.58227405,18.0686635 L7.55392571,18.0686635 C9.50081378,18.0686635 10.7468221,18.6916677 10.7468221,20.6904728 C10.7468221,22.4556513 9.34506273,24.0131618 5.50320361,24.0131618 Z M5.60703764,13.9412608 C3.37460599,13.9412608 1.81709553,12.773128 1.81709553,10.5926134 L1.81709553,10.3330283 C1.81709553,8.20443066 3.34864748,7.01033931 5.60703764,7.01033931 C7.8654278,7.01033931 9.37102124,8.04867962 9.37102124,10.3330283 L9.37102124,10.5926134 C9.37102124,12.773128 7.89138631,13.9412608 5.60703764,13.9412608 Z M17.2104905,19.8078836 C18.716084,19.8078836 20.4812625,19.2887134 22.0647315,18.3282486 L22.1166485,18.3282486 L22.1685655,19.6002155 L22.9213622,19.6002155 L22.9213622,6.54308618 L22.09069,6.54308618 L22.09069,17.6273689 C20.559138,18.5878337 18.8977935,19.0810453 17.3922001,19.0810453 C15.1857269,19.0810453 14.1214281,18.3282486 14.1214281,16.199651 L14.1214281,6.54308618 L13.2907559,6.54308618 L13.2907559,16.303485 C13.2907559,18.7695433 14.7444323,19.8078836 17.2104905,19.8078836 Z M26.2180927,19.6002155 L27.0228064,19.6002155 L27.0228064,6.54308618 L26.2180927,6.54308618 L26.2180927,19.6002155 Z M26.1921342,3.58381631 L27.0487649,3.58381631 L27.0487649,2.46760049 L26.1921342,2.46760049 L26.1921342,3.58381631 Z M34.8090608,19.8078836 C36.8597829,19.8078836 38.1836667,19.1848794 39.1960485,18.3801656 L39.2479656,18.3801656 L39.2998826,19.6002155 L40.0267208,19.6002155 L40.0267208,0.416878386 L39.1960485,0.416878386 L39.1960485,7.45163394 C38.3394178,6.85458827 37.1193679,6.33541812 35.3022724,6.33541812 C31.9017079,6.33541812 29.4356497,8.28230619 29.4356497,12.9548376 L29.4356497,13.1884641 C29.4356497,18.042705 31.9017079,19.8078836 34.8090608,19.8078836 Z M35.0167288,19.1070039 C32.2391685,19.1070039 30.2922804,17.4975764 30.2922804,13.1884641 L30.2922804,12.8510035 C30.2922804,8.6716838 32.368961,7.06225633 35.3801479,7.06225633 C37.0414924,7.06225633 38.3394178,7.52950947 39.1960485,8.20443066 L39.1960485,17.6273689 C38.2096252,18.4580412 36.8857414,19.1070039 35.0167288,19.1070039 Z M48.4891943,19.8078836 C50.4101238,19.8078836 51.8118832,19.3146719 52.616597,18.8733773 L52.616597,18.2244146 C51.6820907,18.6657092 50.3582068,19.0810453 48.5930283,19.0810453 C44.9328787,19.0810453 43.2196172,17.1341573 43.2196172,13.2144226 L43.2196172,12.876962 L53.0838501,12.876962 L53.0838501,12.4097089 C53.0838501,8.61976679 51.5263396,6.33541812 48.0219411,6.33541812 C44.9069202,6.33541812 42.388945,8.43805723 42.388945,12.9548376 L42.388945,13.2403811 C42.388945,17.5235349 44.4396671,19.8078836 48.4891943,19.8078836 Z M47.9959826,7.03629782 C50.9033355,7.03629782 52.2272193,8.93126888 52.2272193,12.1760823 L43.2455757,12.1760823 C43.4792023,8.61976679 45.5039659,7.03629782 47.9959826,7.03629782 Z M58.6649292,19.8078836 C61.7280331,19.8078836 63,18.2763316 63,16.2775265 C63,14.0710534 61.8837842,13.3182567 59.625394,12.669294 L58.0678836,12.2020408 C56.250788,11.6569122 55.6018253,11.0079495 55.6018253,9.47639754 C55.6018253,7.9967626 56.6920827,7.06225633 58.8985558,7.06225633 C60.1964812,7.06225633 61.4424895,7.37375842 62.3250788,7.81505305 L62.3250788,7.11417335 C61.5982406,6.72479573 60.4820248,6.33541812 58.8466388,6.33541812 C56.198871,6.33541812 54.8230701,7.6333435 54.8230701,9.52831455 C54.8230701,11.5271196 55.8354519,12.3577919 57.8082985,12.928879 L59.3398504,13.3961322 C61.364614,13.9931779 62.1693278,14.564265 62.1693278,16.3294435 C62.1693278,17.886954 61.26078,19.0810453 58.5870537,19.0810453 C56.7439997,19.0810453 55.6018253,18.6397507 54.615402,18.1724976 L54.615402,18.8733773 C55.4979913,19.3406304 56.8478337,19.8078836 58.6649292,19.8078836 Z"></path>
            </g>
        </g>
    </g>
</svg>
