<svg width="2261px" height="500px" viewBox="1 0 2261 500" version="1.1" xmlns="http://www.w3.org/2000/svg" xmlns:xlink="http://www.w3.org/1999/xlink">
    <!-- Generator: Sketch 41.2 (35397) - http://www.bohemiancoding.com/sketch -->
    <desc>Created with Sketch.</desc>
    <defs>
        <polygon id="path-1" points="0 499.952456 499 499.952456 499 0.778129952 0 0.778129952"></polygon>
    </defs>
    <g id="Group" stroke="none" stroke-width="1" fill="none" fill-rule="evenodd" transform="translate(1.000000, 0.000000)">
        <g id="GS">
            <g id="NBA">
                <g id="GS">
                    <g id="GSWarriors_P_pms">
                        <g id="Group-3">
                            <g id="Fill-1-Clipped">
                                <mask id="mask-2" fill="white">
                                    <use xlink:href="#path-1"></use>
                                </mask>
                                <g id="path-1"></g>
                                <path d="M249.514257,0.778129952 C111.676992,0.778129952 0,112.569731 0,250.409667 C0,388.242472 111.676992,500 249.514257,500 C387.309543,500 499,388.242472 499,250.409667 C499,112.569731 387.309543,0.778129952 249.514257,0.778129952" id="Fill-1" fill="#0060A0" mask="url(#mask-2)"></path>
                            </g>
                        </g>
                        <path d="M440.754027,340.657686 C402.806265,332.158479 367.639438,319.162441 335.570371,303.729794 C330.623143,301.343106 325.759081,298.893027 320.959176,296.400158 C297.481622,284.2187 275.836111,270.847068 256.138284,257.148177 C252.17163,254.391442 248.269133,251.618067 244.469605,248.836767 C244.232778,248.669572 244.003871,248.499208 243.773381,248.328051 C238.714471,244.63233 233.817143,240.928685 229.056841,237.229002 C221.298579,231.201268 213.90229,225.197306 206.924211,219.287639 C198.839619,212.430269 191.310263,205.710777 184.331392,199.229794 C178.200821,193.549128 172.495587,188.03962 167.24183,182.812995 C166.121852,181.70523 165.071576,180.630745 164.000706,179.547544 C155.713346,171.163233 148.574478,163.509509 142.749643,156.997623 C142.590438,152.045166 142.451035,147.70523 142.340146,143.931854 C142.055003,134.454834 141.902135,128.914422 141.902135,128.914422 L135.221871,125.903328 L130.581171,129.944532 L129.001797,131.308241 C129.001797,131.308241 129.077043,134.970681 129.224367,141.279715 C127.78994,139.522979 126.677883,138.133914 125.744832,136.967512 C125.695724,131.646593 125.653744,127.549921 125.633943,124.832013 C125.606221,122.416799 125.591963,121.079239 125.591963,121.079239 L116.351751,121.079239 L116.184625,126.588748 L110.610875,127.957211 C110.610875,127.957211 110.381968,139.648177 110.041381,158.257528 C96.7648127,188.625198 82.8625143,212.702853 70.3106841,231.315372 C63.9512063,240.751981 57.9386524,248.763074 52.532819,255.450079 C46.2842302,263.175911 40.8079032,269.190174 36.564027,273.51981 C35.7854286,268.07607 35.2286079,262.549128 34.8523778,256.980983 C34.5260476,252.178288 34.3098143,247.339937 34.3098143,242.446117 C34.3098143,237.518225 34.5323841,232.652139 34.8595063,227.808241 C38.2131032,178.009509 58.4329,132.847068 89.932473,98.0459588 C96.7711492,90.4793978 104.161102,83.4104596 112.009659,76.8819334 C145.93057,48.6687797 188.666356,30.7345483 235.466219,27.7377179 C240.085533,27.4484945 244.706432,27.2432647 249.389111,27.2432647 C254.836924,27.2432647 260.200778,27.5150555 265.545622,27.911252 C312.621916,31.4057052 355.449581,50.0475436 389.223168,78.9944532 C396.723217,85.4263074 403.778919,92.3549921 410.341165,99.748019 C440.5671,133.862916 460.104138,177.637084 463.777729,225.862124 C464.203067,231.340729 464.473952,236.857369 464.473952,242.446117 C464.473952,246.48019 464.334549,250.468304 464.1199,254.44691 C462.401122,285.381141 454.162078,314.561014 440.754027,340.657686 L440.754027,340.657686 Z M41.5738286,297.966719 C40.7184,294.750396 39.9461381,291.506339 39.2427857,288.235341 C41.4835333,285.081616 44.0086317,281.48336 46.8418429,277.375594 L41.5738286,297.966719 L41.5738286,297.966719 Z M64.0692238,254.572108 L51.3771984,326.58954 C48.9281381,320.79794 46.7364984,314.86767 44.7959429,308.832805 L54.3212984,266.273376 C56.7141222,262.660856 59.2471413,258.770206 61.8221397,254.739303 C62.8446937,253.14897 63.8458619,251.599842 64.8905937,249.942948 L64.0692238,254.572108 L64.0692238,254.572108 Z M104.607033,196.403328 L98.0582524,233.33439 L94.6507952,252.622821 L74.3185254,367.380349 C71.2358143,363.064976 68.2647841,358.672742 65.5028587,354.126783 L83.3844841,253.288431 L87.0652032,232.596672 L90.1685079,215.058637 L92.353019,202.793185 C98.428146,191.388273 104.321098,179.453249 109.768911,167.25832 L104.607033,196.403328 L104.607033,196.403328 Z M204.856925,237.122029 L242.327073,355.373217 C237.691917,355.672742 233.134384,355.979398 228.626751,356.298732 L191.094822,236.94374 L189.410103,231.55626 L177.840432,194.764659 C180.184148,197.061014 182.523111,199.298732 184.85257,201.540412 C189.04813,205.567353 193.209632,209.521395 197.315689,213.328843 L204.856925,237.122029 L204.856925,237.122029 Z M222.794787,237.22504 L259.936229,354.217908 L259.957614,354.307448 L259.936229,354.307448 C255.581463,354.544374 251.260757,354.795563 246.995495,355.060222 L204.238324,219.6458 C210.353846,225.197306 216.3664,230.529319 222.287075,235.645008 L222.794787,237.22504 L222.794787,237.22504 Z M297.280438,352.533281 C292.779141,352.707607 288.325368,352.902536 283.900902,353.096672 L256.318875,265.633122 L255.461862,262.932647 C255.734332,263.148177 255.99096,263.329635 256.26343,263.544374 C261.919556,267.936609 267.465584,272.141838 272.899932,276.137084 L297.280438,352.533281 L297.280438,352.533281 Z M335.068995,351.461173 C330.205725,351.558637 325.369386,351.662441 320.569481,351.788431 L303.306457,297.42393 C309.769695,301.698098 316.011948,305.66561 322.029254,309.340729 L335.068995,351.461173 L335.068995,351.461173 Z M372.475778,336.73851 C388.994262,344.486529 401.475598,349.087163 409.088121,351.572108 C398.344571,351.31458 387.658051,351.16878 377.053113,351.119651 L372.475778,336.73851 L372.475778,336.73851 Z M350.140379,325.482567 C356.053925,328.664025 361.620548,331.49683 366.832325,334.038035 L372.245287,351.119651 C370.617597,351.119651 368.982778,351.133122 367.355087,351.133122 C364.293762,351.133122 361.218179,351.133122 358.170319,351.147385 L352.541124,333.181458 L350.140379,325.482567 L350.140379,325.482567 Z M327.951513,312.90412 C333.642489,316.301109 339.13941,319.469097 344.365444,322.350238 L353.396552,351.202853 C350.926106,351.22504 348.47071,351.266244 345.992343,351.300317 C343.947235,351.31458 341.888662,351.342314 339.849098,351.370048 L331.597381,324.710777 L327.951513,312.90412 L327.951513,312.90412 Z M297.384198,293.455626 C297.648748,293.616482 297.885575,293.790016 298.143787,293.964342 L297.481622,293.762282 L315.858287,351.913629 C311.20333,352.05309 306.582432,352.206022 301.997176,352.373217 L279.572275,281.038035 C285.675124,285.429477 291.575205,289.529319 297.35014,293.427892 L297.4539,293.748811 L297.481622,293.762282 L297.384198,293.455626 L297.384198,293.455626 Z M228.612494,241.082409 C231.55501,243.573693 234.45713,245.982567 237.344202,248.362916 C239.737025,250.329635 242.104503,252.244057 244.461684,254.147385 C245.896111,255.310618 247.35034,256.507132 248.783975,257.641838 L279.196044,353.305864 C274.290795,353.528526 269.434654,353.778922 264.632373,354.043582 L230.950665,248.401743 L228.612494,241.082409 L228.612494,241.082409 Z M375.091963,389.725832 C349.833851,388.5 312.998146,387.442155 262.122324,387.48336 C255.461862,387.497623 248.547148,387.525357 241.400359,387.567353 C225.292956,387.679081 208.085376,387.87401 189.403767,388.229002 C206.909954,387.427892 224.374162,386.835975 241.442338,386.404913 C248.386359,386.230586 255.225827,386.084786 262.010643,385.965927 C303.827635,385.171949 342.2641,385.29794 371.52847,385.6458 C386.934105,385.840729 399.820186,386.098257 409.331284,386.31458 C407.731316,388.09588 406.075111,389.815372 404.419698,391.534865 C397.224594,390.978605 387.524984,390.337559 375.091963,389.725832 L375.091963,389.725832 Z M154.551389,395.843106 C179.565546,395.286846 209.581584,394.862124 241.059771,394.931854 C248.219233,394.945325 255.44206,394.987322 262.706867,395.057052 C304.899297,395.461173 348.178438,396.846276 384.624448,400.068938 C388.047746,400.368463 391.491638,400.681458 394.796919,401.001585 C393.181902,402.491284 391.513024,403.911252 389.84969,405.344691 C352.164894,437.908082 303.103689,457.649762 249.389111,457.649762 C217.013516,457.649762 186.328976,450.451664 158.788929,437.629952 C157.279256,426.09588 155.859086,411.888273 154.551389,395.843106 L154.551389,395.843106 Z M139.0214,427.160856 C137.350938,426.16561 135.723248,425.114105 134.080508,424.069731 C133.495965,415.564184 132.946273,406.250396 132.425095,396.386688 C133.996549,396.337559 135.640081,396.296355 137.266979,396.254358 C137.852314,408.366878 138.436857,418.848653 139.0214,427.160856 L139.0214,427.160856 Z M150.3487,333.968304 C149.548716,320.304279 148.810513,306.347861 148.12221,292.391442 L157.696673,322.538827 L169.991083,361.199683 C163.805859,361.79794 157.878056,362.403328 152.137179,363.009509 C152.059557,361.909667 151.989856,360.753566 151.913817,359.647385 C151.371254,351.280507 150.850076,342.697306 150.3487,333.968304 L150.3487,333.968304 Z M145.589983,235.729002 C145.478302,232.809033 145.353156,229.7813 145.234346,226.920761 L186.858075,359.633122 C182.710038,360.002377 178.640416,360.377179 174.653168,360.753566 L166.636694,335.249604 L160.903738,317.046751 L147.22401,273.51981 C146.869165,265.667987 146.52937,257.885895 146.201456,250.249604 C145.986014,245.304279 145.791167,240.538827 145.589983,235.729002 L145.589983,235.729002 Z M95.3525635,369.740887 L107.966967,298.509509 C107.696081,323.526941 107.535292,347.674326 107.549549,368.160856 C103.172606,368.702853 99.138627,369.239303 95.3525635,369.740887 L95.3525635,369.740887 Z M107.855286,404.419968 C105.253357,402.143423 102.706873,399.804279 100.216625,397.395404 C102.477967,397.312203 104.933363,397.229002 107.73806,397.131537 C107.772119,399.706815 107.814098,402.143423 107.855286,404.419968 L107.855286,404.419968 Z M102.651429,233.629952 L109.387137,195.599842 C109.184368,207.558637 108.975263,220.51664 108.788337,233.985737 C108.690913,239.860539 108.607746,245.850238 108.531708,251.878764 C108.420027,259.41046 108.322603,267.004754 108.231516,274.647385 L107.590737,274.529319 L90.5922619,370.38748 C85.840673,371.028526 81.6728349,371.61252 78.0824111,372.128368 L99.3192175,252.362124 L102.651429,233.629952 L102.651429,233.629952 Z M151.356997,168.038035 C154.189416,170.992868 157.006786,173.905705 159.817819,176.784469 C162.803106,179.850238 165.759879,182.861331 168.717444,185.805864 C169.093675,186.18859 169.48337,186.588748 169.8596,186.968304 L189.633465,249.011094 L189.786333,249.504754 L223.922686,356.633122 C219.448319,356.953249 215.04999,357.286846 210.709483,357.621236 L180.950073,262.591125 L172.823502,236.575277 L151.356997,168.038035 L151.356997,168.038035 Z M142.805087,159.012678 C143.16706,159.399366 143.529033,159.768621 143.891798,160.154517 L206.074327,357.990491 C201.120762,358.394612 196.285214,358.805071 191.513032,359.208399 L177.004805,312.501585 L171.612437,295.209984 L157.529548,249.863708 L153.215178,236.011094 L144.5104,207.986529 C144.03041,195.154517 143.612992,183.421553 143.272405,173.007924 C143.105279,168.038035 142.938154,163.276545 142.805087,159.012678 L142.805087,159.012678 Z M125.786811,140.487322 C126.970154,141.799525 128.132111,143.037242 129.300405,144.332805 C129.488916,152.007132 129.745544,162.786054 130.065538,175.687797 C130.503549,192.526149 131.032648,213.022979 131.645705,235.151347 C131.798573,240.288431 131.937976,245.509509 132.097181,250.799525 C133.057954,284.176704 134.191397,319.991284 135.388997,351.823296 C135.556122,356.215531 135.723248,360.544374 135.890373,364.763867 C134.219911,364.958796 132.626279,365.139461 130.998589,365.333597 C130.879779,362.452456 130.776019,359.500792 130.65721,356.577655 C129.341592,322.580032 128.347552,285.520602 127.595092,250.984152 C127.477867,245.564976 127.372522,240.226624 127.260841,234.956418 C126.851344,214.077655 126.531351,194.628368 126.27393,177.853407 C126.057697,162.938986 125.904829,150.082409 125.786811,140.487322 L125.786811,140.487322 Z M75.9881952,231.771791 C79.1477365,226.454041 82.3262873,221.014263 85.5072143,215.316165 L84.2121905,222.77813 L62.2253,348.419176 C59.4419889,343.525357 56.8463968,338.520602 54.452781,333.383518 L70.9300778,240.198098 C71.5288778,239.223455 72.1332222,238.16878 72.7391508,237.180666 C73.8100206,235.402536 74.8959397,233.595087 75.9881952,231.771791 L75.9881952,231.771791 Z M249.38119,12.8763867 C122.60034,12.8763867 19.822973,115.646593 19.822973,242.488114 C19.822973,369.35103 122.60034,472.141838 249.38119,472.141838 C313.839317,472.141838 372.044103,445.537242 413.735949,402.74168 C415.135525,401.990491 416.832917,399.971474 418.29269,397.959588 C455.922043,357.064976 478.912478,302.484152 478.912478,242.488114 C478.912478,115.646593 376.163625,12.8763867 249.38119,12.8763867 L249.38119,12.8763867 Z" id="Fill-4" fill="#F3B336"></path>
                        <path d="M34.3098143,242.446117 C34.3098143,247.339937 34.5260476,252.178288 34.8523778,256.980983 C37.9279603,256.68859 43.9056635,256.131537 52.532819,255.450079 C57.9386524,248.763074 63.9512063,240.751981 70.3106841,231.315372 C51.1482921,229.732171 39.0479381,228.322504 34.8595063,227.808241 C34.5323841,232.652139 34.3098143,237.518225 34.3098143,242.446117 L34.3098143,242.446117 Z M464.473952,242.446117 C464.473952,236.857369 464.203067,231.340729 463.777729,225.862124 C412.539933,230.686212 364.807019,233.683043 321.154024,235.374802 C323.372594,201.725832 339.59247,171.417591 362.525084,142.018225 C381.075211,118.208399 400.600368,105.25832 410.341165,99.748019 C403.778919,92.3549921 396.723217,85.4263074 389.223168,78.9944532 C372.461521,95.5538827 317.661024,155.616482 313.764071,235.667195 C293.522889,236.39065 274.221094,236.835975 255.880071,237.058637 C254.745837,112.270206 264.563463,35.2765452 265.545622,27.911252 C260.200778,27.5150555 254.836924,27.2432647 249.389111,27.2432647 C244.706432,27.2432647 240.085533,27.4484945 235.466219,27.7377179 C236.524416,37.7749604 244.073573,114.328051 244.448219,237.163233 C239.25149,237.197306 234.101494,237.22504 229.056841,237.229002 C233.817143,240.928685 238.714471,244.63233 243.773381,248.328051 L244.469605,248.328051 L244.469605,248.836767 C248.269133,251.618067 252.17163,254.391442 256.138284,257.148177 C256.088384,254.16878 256.047197,251.234548 255.998881,248.300317 C274.270202,248.293185 293.475365,248.432647 313.589025,248.763074 C313.923276,264.045959 316.184617,279.973059 320.959176,296.400158 C325.759081,298.893027 330.623143,301.343106 335.570371,303.729794 C326.39986,284.337559 321.820941,266.155309 321.020957,248.902536 C364.793554,249.720285 412.684881,251.432647 464.1199,254.44691 C464.334549,250.468304 464.473952,246.48019 464.473952,242.446117 L464.473952,242.446117 Z M112.009659,76.8819334 C104.161102,83.4104596 96.7711492,90.4793978 89.932473,98.0459588 C95.4983032,100.938193 107.772119,108.087163 121.730654,121.079239 L125.591963,121.079239 C125.591963,121.079239 125.606221,122.416799 125.633943,124.832013 C127.260841,126.46038 128.917838,128.155309 130.581171,129.944532 L135.221871,125.903328 L141.902135,128.914422 C141.902135,128.914422 142.055003,134.454834 142.340146,143.931854 C151.989856,156.486529 160.396025,169.217116 166.993122,182.315372 L184.032784,198.091918 C167.931717,133.571315 123.358344,87.7337559 112.009659,76.8819334 L112.009659,76.8819334 Z" id="Fill-5" fill="#FFFFFF"></path>
                    </g>
                </g>
            </g>
        </g>
        <path d="M669.24,152.28 C665.839983,152.28 664.14,154.433312 664.14,158.74 C664.14,159.873339 664.309998,161.233325 664.65,162.82 C664.990002,164.406675 665.839993,167.013315 667.2,170.64 L703.58,265.16 L704.26,265.16 L740.3,169.28 C741.433339,166.333319 742.169998,164.123341 742.51,162.65 C742.850002,161.176659 743.02,159.873339 743.02,158.74 C743.02,154.433312 741.546681,152.28 738.6,152.28 L738.6,146.16 L796.74,146.16 L796.74,152.28 C795.153325,152.28 794.020003,152.846661 793.34,153.98 C792.659997,155.113339 792.32,156.359993 792.32,157.72 C792.32,159.986678 793.453322,163.839973 795.72,169.28 L832.1,265.16 L832.78,265.16 L869.5,167.24 C871.086675,163.839983 871.88,160.780014 871.88,158.06 C871.88,156.699993 871.313339,155.396673 870.18,154.15 C869.046661,152.903327 867.686675,152.28 866.1,152.28 L866.1,146.16 L916.42,146.16 L916.42,152.28 C913.926654,152.28 912.056673,153.639986 910.81,156.36 C909.563327,159.080014 908.146675,162.47998 906.56,166.56 L857.6,296.44 L854.03,305.96 C853.009995,308.680014 852.5,310.946658 852.5,312.76 C852.5,314.346675 853.066661,315.763327 854.2,317.01 C855.333339,318.256673 856.91999,318.88 858.96,318.88 L858.96,325 L805.24,325 L805.24,318.88 C806.600007,318.426664 808.016659,317.746671 809.49,316.84 C810.963341,315.933329 811.7,314.686675 811.7,313.1 C811.7,311.286658 811.303337,309.246678 810.51,306.98 C809.716663,304.713322 808.413342,301.54002 806.6,297.46 L767.5,197.16 L766.82,197.16 L729.76,295.42 C726.359983,304.260044 724.66,309.813322 724.66,312.08 C724.66,315.706685 726.133319,317.973329 729.08,318.88 L729.08,325 L676.38,325 L676.38,318.88 C677.740007,318.88 679.099993,318.540003 680.46,317.86 C681.820007,317.179997 682.5,316.046675 682.5,314.46 C682.5,312.646658 682.103337,310.72001 681.31,308.68 C680.516663,306.63999 679.666671,304.486678 678.76,302.22 L624.36,161.8 C623.453329,159.306654 622.490005,157.210008 621.47,155.51 C620.449995,153.809991 618.806678,152.733336 616.54,152.28 L616.54,146.16 L669.24,146.16 L669.24,152.28 Z M1032.28,255.64 L1003.72,192.4 L971.76,255.64 L1032.28,255.64 Z M904.1,318.88 C907.046681,318.426664 909.369991,316.953346 911.07,314.46 C912.770009,311.966654 914.413325,309.133349 916,305.96 L978.9,173.7 C980.486675,170.753319 981.903327,168.033346 983.15,165.54 C984.396673,163.046654 985.02,160.893342 985.02,159.08 C985.02,156.813322 984.226675,155.226671 982.64,154.32 C981.053325,153.413329 979.353342,152.733336 977.54,152.28 L977.54,146.16 L1035,146.16 L1035,152.28 C1033.41333,152.733336 1031.82667,153.356663 1030.24,154.15 C1028.65333,154.943337 1027.86,156.586654 1027.86,159.08 C1027.86,160.893342 1028.25666,162.706658 1029.05,164.52 C1029.84334,166.333342 1031.03333,168.713319 1032.62,171.66 L1103.34,310.04 C1104.47334,312.533346 1106.00332,314.346661 1107.93,315.48 C1109.85668,316.613339 1112.06665,317.746661 1114.56,318.88 L1114.56,325 L1054.72,325 L1054.72,318.88 C1055.62667,318.88 1056.75999,318.540003 1058.12,317.86 C1059.48001,317.179997 1060.16,316.160007 1060.16,314.8 C1060.16,312.533322 1059.25334,309.586685 1057.44,305.96 L1044.52,280.8 L961.56,280.8 L949.32,304.94 C947.053322,309.700024 945.92,313.09999 945.92,315.14 C945.92,317.633346 948.073312,318.88 952.38,318.88 L952.38,325 L904.1,325 L904.1,318.88 Z M1228.38,225.72 C1236.54004,225.72 1243.33997,225.096673 1248.78,223.85 C1254.22003,222.603327 1258.52665,220.846678 1261.7,218.58 C1264.87335,216.313322 1267.13999,213.650015 1268.5,210.59 C1269.86001,207.529985 1270.54,204.186685 1270.54,200.56 C1270.54,196.933315 1269.86001,193.590015 1268.5,190.53 C1267.13999,187.469985 1264.87335,184.806678 1261.7,182.54 C1258.52665,180.273322 1254.22003,178.516673 1248.78,177.27 C1243.33997,176.023327 1236.54004,175.4 1228.38,175.4 L1169.56,175.4 L1169.56,225.72 L1228.38,225.72 Z M1237.22,146.16 C1248.10005,146.16 1257.95996,147.123324 1266.8,149.05 C1275.64004,150.976676 1283.2333,154.036646 1289.58,158.23 C1295.9267,162.423354 1300.79998,167.8633 1304.2,174.55 C1307.60002,181.2367 1309.3,189.453285 1309.3,199.2 C1309.3,214.160075 1304.88004,225.606627 1296.04,233.54 C1287.19996,241.473373 1275.30007,246.799986 1260.34,249.52 L1305.56,314.12 C1307.14667,316.386678 1309.01666,317.746664 1311.17,318.2 C1313.32334,318.653336 1315.30666,318.88 1317.12,318.88 L1317.12,325 L1253.54,325 L1253.54,318.88 C1255.58001,318.88 1257.33666,318.540003 1258.81,317.86 C1260.28334,317.179997 1261.02,316.273339 1261.02,315.14 C1261.02,314.006661 1260.56667,312.703341 1259.66,311.23 C1258.75333,309.756659 1257.39334,307.773346 1255.58,305.28 L1218.18,252.24 L1169.56,252.24 L1169.56,312.76 C1169.56,314.80001 1170.29666,316.329995 1171.77,317.35 C1173.24334,318.370005 1175.90665,318.88 1179.76,318.88 L1179.76,325 L1120.94,325 L1120.94,318.88 C1127.51337,318.88 1130.8,316.84002 1130.8,312.76 L1130.8,158.4 C1130.8,154.31998 1127.51337,152.28 1120.94,152.28 L1120.94,146.16 L1237.22,146.16 Z M1443.86,225.72 C1452.02004,225.72 1458.81997,225.096673 1464.26,223.85 C1469.70003,222.603327 1474.00665,220.846678 1477.18,218.58 C1480.35335,216.313322 1482.61999,213.650015 1483.98,210.59 C1485.34001,207.529985 1486.02,204.186685 1486.02,200.56 C1486.02,196.933315 1485.34001,193.590015 1483.98,190.53 C1482.61999,187.469985 1480.35335,184.806678 1477.18,182.54 C1474.00665,180.273322 1469.70003,178.516673 1464.26,177.27 C1458.81997,176.023327 1452.02004,175.4 1443.86,175.4 L1385.04,175.4 L1385.04,225.72 L1443.86,225.72 Z M1452.7,146.16 C1463.58005,146.16 1473.43996,147.123324 1482.28,149.05 C1491.12004,150.976676 1498.7133,154.036646 1505.06,158.23 C1511.4067,162.423354 1516.27998,167.8633 1519.68,174.55 C1523.08002,181.2367 1524.78,189.453285 1524.78,199.2 C1524.78,214.160075 1520.36004,225.606627 1511.52,233.54 C1502.67996,241.473373 1490.78007,246.799986 1475.82,249.52 L1521.04,314.12 C1522.62667,316.386678 1524.49666,317.746664 1526.65,318.2 C1528.80334,318.653336 1530.78666,318.88 1532.6,318.88 L1532.6,325 L1469.02,325 L1469.02,318.88 C1471.06001,318.88 1472.81666,318.540003 1474.29,317.86 C1475.76334,317.179997 1476.5,316.273339 1476.5,315.14 C1476.5,314.006661 1476.04667,312.703341 1475.14,311.23 C1474.23333,309.756659 1472.87334,307.773346 1471.06,305.28 L1433.66,252.24 L1385.04,252.24 L1385.04,312.76 C1385.04,314.80001 1385.77666,316.329995 1387.25,317.35 C1388.72334,318.370005 1391.38665,318.88 1395.24,318.88 L1395.24,325 L1336.42,325 L1336.42,318.88 C1342.99337,318.88 1346.28,316.84002 1346.28,312.76 L1346.28,158.4 C1346.28,154.31998 1342.99337,152.28 1336.42,152.28 L1336.42,146.16 L1452.7,146.16 Z M1552.92,318.88 C1558.81336,318.88 1561.76,316.84002 1561.76,312.76 L1561.76,158.4 C1561.76,154.31998 1558.81336,152.28 1552.92,152.28 L1552.92,146.16 L1609.36,146.16 L1609.36,152.28 C1603.46664,152.28 1600.52,154.31998 1600.52,158.4 L1600.52,312.76 C1600.52,316.84002 1603.46664,318.88 1609.36,318.88 L1609.36,325 L1552.92,325 L1552.92,318.88 Z M1740.18,175.4 C1731.56662,175.4 1722.95338,176.759986 1714.34,179.48 C1705.72662,182.200014 1697.96337,186.109974 1691.05,191.21 C1684.13663,196.310025 1678.52669,202.599963 1674.22,210.08 C1669.91331,217.560037 1667.76,226.059952 1667.76,235.58 C1667.76,245.100048 1669.91331,253.599963 1674.22,261.08 C1678.52669,268.560037 1684.13663,274.849975 1691.05,279.95 C1697.96337,285.050026 1705.72662,288.959986 1714.34,291.68 C1722.95338,294.400014 1731.56662,295.76 1740.18,295.76 C1748.79338,295.76 1757.40662,294.400014 1766.02,291.68 C1774.63338,288.959986 1782.39663,285.050026 1789.31,279.95 C1796.22337,274.849975 1801.83331,268.560037 1806.14,261.08 C1810.44669,253.599963 1812.6,245.100048 1812.6,235.58 C1812.6,226.059952 1810.44669,217.560037 1806.14,210.08 C1801.83331,202.599963 1796.22337,196.310025 1789.31,191.21 C1782.39663,186.109974 1774.63338,182.200014 1766.02,179.48 C1757.40662,176.759986 1748.79338,175.4 1740.18,175.4 Z M1740.18,144.12 C1752.64673,144.12 1765.33994,145.989981 1778.26,149.73 C1791.18006,153.470019 1802.96661,159.079963 1813.62,166.56 C1824.27339,174.040037 1832.99997,183.503276 1839.8,194.95 C1846.60003,206.396724 1850,219.939922 1850,235.58 C1850,251.220078 1846.60003,264.763276 1839.8,276.21 C1832.99997,287.656724 1824.27339,297.119963 1813.62,304.6 C1802.96661,312.080037 1791.18006,317.519983 1778.26,320.92 C1765.33994,324.320017 1752.64673,326.02 1740.18,326.02 C1727.71327,326.02 1715.02006,324.320017 1702.1,320.92 C1689.17994,317.519983 1677.39339,312.080037 1666.74,304.6 C1656.08661,297.119963 1647.36003,287.656724 1640.56,276.21 C1633.75997,264.763276 1630.36,251.220078 1630.36,235.58 C1630.36,219.939922 1633.75997,206.396724 1640.56,194.95 C1647.36003,183.503276 1656.08661,174.040037 1666.74,166.56 C1677.39339,159.079963 1689.17994,153.470019 1702.1,149.73 C1715.02006,145.989981 1727.71327,144.12 1740.18,144.12 Z M1977.08,225.72 C1985.24004,225.72 1992.03997,225.096673 1997.48,223.85 C2002.92003,222.603327 2007.22665,220.846678 2010.4,218.58 C2013.57335,216.313322 2015.83999,213.650015 2017.2,210.59 C2018.56001,207.529985 2019.24,204.186685 2019.24,200.56 C2019.24,196.933315 2018.56001,193.590015 2017.2,190.53 C2015.83999,187.469985 2013.57335,184.806678 2010.4,182.54 C2007.22665,180.273322 2002.92003,178.516673 1997.48,177.27 C1992.03997,176.023327 1985.24004,175.4 1977.08,175.4 L1918.26,175.4 L1918.26,225.72 L1977.08,225.72 Z M1985.92,146.16 C1996.80005,146.16 2006.65996,147.123324 2015.5,149.05 C2024.34004,150.976676 2031.9333,154.036646 2038.28,158.23 C2044.6267,162.423354 2049.49998,167.8633 2052.9,174.55 C2056.30002,181.2367 2058,189.453285 2058,199.2 C2058,214.160075 2053.58004,225.606627 2044.74,233.54 C2035.89996,241.473373 2024.00007,246.799986 2009.04,249.52 L2054.26,314.12 C2055.84667,316.386678 2057.71666,317.746664 2059.87,318.2 C2062.02334,318.653336 2064.00666,318.88 2065.82,318.88 L2065.82,325 L2002.24,325 L2002.24,318.88 C2004.28001,318.88 2006.03666,318.540003 2007.51,317.86 C2008.98334,317.179997 2009.72,316.273339 2009.72,315.14 C2009.72,314.006661 2009.26667,312.703341 2008.36,311.23 C2007.45333,309.756659 2006.09334,307.773346 2004.28,305.28 L1966.88,252.24 L1918.26,252.24 L1918.26,312.76 C1918.26,314.80001 1918.99666,316.329995 1920.47,317.35 C1921.94334,318.370005 1924.60665,318.88 1928.46,318.88 L1928.46,325 L1869.64,325 L1869.64,318.88 C1876.21337,318.88 1879.5,316.84002 1879.5,312.76 L1879.5,158.4 C1879.5,154.31998 1876.21337,152.28 1869.64,152.28 L1869.64,146.16 L1985.92,146.16 Z M2100.42,268.9 L2103.82,270.6 C2103.82,272.64001 2104.27333,274.453325 2105.18,276.04 C2106.76667,278.760014 2109.88331,281.42332 2114.53,284.03 C2119.17669,286.63668 2124.5033,288.95999 2130.51,291 C2136.5167,293.04001 2142.80663,294.683327 2149.38,295.93 C2155.95337,297.176673 2161.84664,297.8 2167.06,297.8 C2170.91335,297.8 2175.89997,297.51667 2182.02,296.95 C2188.14003,296.38333 2194.14664,295.193342 2200.04,293.38 C2205.93336,291.566658 2211.03331,289.073349 2215.34,285.9 C2219.64669,282.726651 2221.8,278.533359 2221.8,273.32 C2221.8,268.106641 2219.81669,264.253346 2215.85,261.76 C2211.88331,259.266654 2206.67003,257.453339 2200.21,256.32 C2193.74997,255.186661 2186.38337,254.450002 2178.11,254.11 C2169.83663,253.769998 2161.39338,253.260003 2152.78,252.58 C2144.16662,251.899997 2135.72337,250.766675 2127.45,249.18 C2119.17663,247.593325 2111.81003,244.930019 2105.35,241.19 C2098.88997,237.449981 2093.67669,232.350032 2089.71,225.89 C2085.74331,219.429968 2083.76,210.986719 2083.76,200.56 C2083.76,193.533298 2085.40332,186.620034 2088.69,179.82 C2091.97668,173.019966 2097.01997,167.013359 2103.82,161.8 C2110.62003,156.586641 2119.23328,152.336683 2129.66,149.05 C2140.08672,145.763317 2152.3266,144.12 2166.38,144.12 C2178.39339,144.12 2188.81996,145.026658 2197.66,146.84 C2206.50004,148.653342 2214.14997,150.57999 2220.61,152.62 C2227.07003,154.66001 2232.50998,156.586658 2236.93,158.4 C2241.35002,160.213342 2245.03332,161.12 2247.98,161.12 C2251.15335,161.12 2253.41999,160.440007 2254.78,159.08 L2258.86,161.8 L2235.4,204.3 L2232,202.94 C2231.54666,199.766651 2230.64001,197.16001 2229.28,195.12 C2227.46666,192.399986 2224.46335,189.73668 2220.27,187.13 C2216.07665,184.52332 2211.14669,182.20001 2205.48,180.16 C2199.8133,178.11999 2193.69337,176.476673 2187.12,175.23 C2180.54663,173.983327 2173.97337,173.36 2167.4,173.36 C2162.41331,173.36 2157.25669,173.756663 2151.93,174.55 C2146.60331,175.343337 2141.78669,176.533325 2137.48,178.12 C2133.17331,179.706675 2129.60335,181.80332 2126.77,184.41 C2123.93665,187.01668 2122.52,190.246647 2122.52,194.1 C2122.52,199.540027 2124.50331,203.619986 2128.47,206.34 C2132.43669,209.060014 2137.64997,211.099993 2144.11,212.46 C2150.57003,213.820007 2157.93663,214.726664 2166.21,215.18 C2174.48337,215.633336 2182.92662,216.199997 2191.54,216.88 C2200.15338,217.560003 2208.59663,218.749991 2216.87,220.45 C2225.14337,222.150009 2232.50997,224.869981 2238.97,228.61 C2245.43003,232.350019 2250.64331,237.393302 2254.61,243.74 C2258.57669,250.086698 2260.56,258.359949 2260.56,268.56 C2260.56,280.346726 2257.44336,289.979963 2251.21,297.46 C2244.97664,304.940037 2237.21338,310.833312 2227.92,315.14 C2218.62662,319.446688 2208.59672,322.336659 2197.83,323.81 C2187.06328,325.283341 2177.03338,326.02 2167.74,326.02 C2154.81994,326.02 2143.99671,325.283341 2135.27,323.81 C2126.54329,322.336659 2119.29003,320.523344 2113.51,318.37 C2107.72997,316.216656 2103.14002,314.290008 2099.74,312.59 C2096.33998,310.889992 2093.39335,310.04 2090.9,310.04 C2089.31333,310.04 2087.84001,310.946658 2086.48,312.76 L2081.72,310.04 L2100.42,268.9 Z" id="WARRIORS" fill="#0060A0"></path>
    </g>
</svg>
