<svg xmlns="http://www.w3.org/2000/svg" viewBox="0 0 430.5 150" style="max-height:100%;" data-reactid="6"><g fill="#66bbff" data-reactid="7"><path d="M75 0C33.6 0 0 33.6 0 75s33.6 75 75 75 75-33.6 75-75S116.4 0 75 0zm48.6 57.2l-22.5 47.2c-.7 1.4-2.1 2.5-3.6 2.5h-45c-1.5 0-2.9-1.1-3.6-2.5l-22.5-47c-.6-1.2-.5-2.5.2-3.7s2-1.7 3.4-1.7h90c1.4 0 2.7.5 3.4 1.6s.8 2.4.2 3.6z" data-reactid="8"></path><path d="M97.5 93.7L113.7 60H81.4zM75 65.3L58.9 99h32.3zM68.7 60H36.4l16.1 33.7zM252.1 52h-5.3c-.8 0-1.5.3-1.8 1l-13.5 39.4L218 53.1c-.3-.8-1-1.2-1.8-1.2h-3.9c-.8 0-1.5.3-1.8 1.1L197 92.3l-13.5-39.4c-.3-.8-1-1.1-1.8-1.1h-5.4c-.6 0-1.2 0-1.5.5-.4.5-.4 1-.2 1.6l18.5 51.5c.3.7 1 1.4 1.8 1.4h4.2c.8 0 1.5-.8 1.8-1.5L214.3 67l13.3 38.4c.3.7 1 1.4 1.8 1.4h4.2c.8 0 1.5-.7 1.8-1.5l18.5-51.4c.2-.6.1-1-.2-1.5-.4-.3-1-.4-1.6-.4zM286 51.5c-7.9 0-13.7 2.3-18.5 4.5-.9.4-1.2 1.5-.8 2.4l1.8 4.3c.2.5.6.9 1.1 1 .5.2 1 .1 1.5-.1 5.2-2.6 9.9-3.9 15-3.9 6.7 0 14.7 1.9 14.8 12.9-3.9-.9-8.8-1.7-15.2-1.7-14.6 0-24.2 6.4-24.2 17.6v.2c0 11.5 11.1 17.7 21.5 17.7 8.3 0 13.5-3.3 17.5-6.6v4.6c0 1 1.2 2.4 2.3 2.4h4.7c1 0 1-1.3 1-2.4V72.7c0-13.5-8.1-21.2-22.5-21.2zm14.5 33.8c0 7.8-7.4 12.9-17.2 12.9-6.4 0-12.8-3.3-12.8-9.7v-.2c0-6.2 5.5-9.2 14.7-9.2 6.3 0 11.3.9 15.3 1.9v4.3zM353.1 52h-16.6V37.9c0-1 .1-1.9-.9-1.9h-4.9c-1 0-2.2.9-2.2 1.9V52h-5.1c-1 0-1.9.4-1.9 1.5V58c0 1 .9 2.1 1.9 2.1h5.1v30.8c0 9.7 6.3 15.7 16.2 15.7 3.3 0 5.9-.6 8.8-2 .7-.3.9-1 .9-1.7v-4.6c0-.6-.1-1.2-.6-1.6-.5-.3-1.1-.4-1.7-.1-2.6 1.2-4.9 1.6-7.1 1.6-5.6 0-8.7-2.5-8.7-7.9V60h16.6c1 0 1.4-1 1.4-2.1v-4.5c.2-1-.1-1.4-1.2-1.4zM388.4 74.5c-7.4-2.1-12.9-3.2-12.9-7.3V67c0-4.1 4.4-6.9 10-6.9 4.7 0 10.1 1.7 14.7 4.7.4.3 1 .4 1.5.3.5-.1 1-.4 1.2-.8l2.6-4.1c.5-.9.3-2-.5-2.6-5.4-3.6-12.8-5.9-19-5.9-10.7 0-18.6 6.7-18.6 15.8v.2c0 10.3 10.2 12.4 18.3 14.8v.1c8 2.2 11.6 3.4 11.6 7.6v.2c0 4.6-3.8 7.7-9.9 7.7-5.9 0-11.4-2.1-16.8-6.2-.4-.3-.8-.4-1.3-.4-.5.1-.9.3-1.2.7l-2.9 3.9c-.6.8-.4 1.9.3 2.6 5.9 4.8 14 7.8 21.6 7.8 11.2 0 19-7 19-16.6v-.2c.4-10.9-11-13.3-17.7-15.2zM429.3 52h-4.9c-1 0-1.9.4-1.9 1.5v51.2c0 1 .9 2.4 1.9 2.4h4.9c1 0 1.2-1.3 1.2-2.4V53.5c0-1.1-.2-1.5-1.2-1.5zM429.5 36h-5.3c-.9 0-1.7.8-1.7 1.7v5.2c0 .9.8 2.1 1.7 2.1h5.3c.9 0 1-1.2 1-2.1v-5.2c0-.9-.1-1.7-1-1.7z" data-reactid="9"></path></g></svg>
