<?xml version="1.0" encoding="UTF-8"?>
<svg width="341px" height="24px" viewBox="0 0 341 24" version="1.1" xmlns="http://www.w3.org/2000/svg" xmlns:xlink="http://www.w3.org/1999/xlink">
    <!-- Generator: Sketch 49.1 (51147) - http://www.bohemiancoding.com/sketch -->
    <title>Untitled 5</title>
    <desc>Created with Sketch.</desc>
    <defs></defs>
    <g id="Page-1" stroke="none" stroke-width="1" fill="none" fill-rule="evenodd">
        <g id="paper" fill="#FFFFFD">
            <path d="M161.789631,-154.134 C162.354919,-156.073 164.11781,-157.49 166.21099,-157.49 C168.757209,-157.49 170.822125,-155.394 170.822125,-152.809 C170.822125,-150.225 168.757209,-148.13 166.21099,-148.13 C164.182414,-148.13 162.463131,-149.463 161.846967,-151.308 L159.178,-151.308 L159.178,-139.298 L161.789631,-139.298 C162.354919,-141.237 164.11781,-142.653 166.21099,-142.653 C168.757209,-142.653 170.822125,-140.558 170.822125,-137.972 C170.822125,-135.388 168.757209,-133.294 166.21099,-133.294 C164.182414,-133.294 162.463131,-134.626 161.846967,-136.472 L159.178,-136.472 L159.178,-124.463 L161.789631,-124.463 C162.354919,-126.4 164.11781,-127.817 166.21099,-127.817 C168.757209,-127.817 170.822125,-125.721 170.822125,-123.136 C170.822125,-120.553 168.757209,-118.457 166.21099,-118.457 C164.182414,-118.457 162.463131,-119.789 161.846967,-121.636 L159.178,-121.636 L159.178,-109.626 L161.789631,-109.626 C162.354919,-111.564 164.11781,-112.981 166.21099,-112.981 C168.757209,-112.981 170.822125,-110.886 170.822125,-108.3 C170.822125,-105.717 168.757209,-103.621 166.21099,-103.621 C164.182414,-103.621 162.463131,-104.953 161.846967,-106.8 L159.178,-106.8 L159.178,-94.79 L161.789631,-94.79 C162.354919,-96.727 164.11781,-98.145 166.21099,-98.145 C168.757209,-98.145 170.822125,-96.049 170.822125,-93.463 C170.822125,-90.881 168.757209,-88.784 166.21099,-88.784 C164.182414,-88.784 162.463131,-90.116 161.846967,-91.963 L159.178,-91.963 L159.178,-79.953 L161.789631,-79.953 C162.354919,-81.891 164.11781,-83.308 166.21099,-83.308 C168.757209,-83.308 170.822125,-81.213 170.822125,-78.627 C170.822125,-76.043 168.757209,-73.948 166.21099,-73.948 C164.182414,-73.948 162.463131,-75.28 161.846967,-77.128 L159.178,-77.128 L159.178,-65.117 L161.789631,-65.117 C162.354919,-67.054 164.11781,-68.472 166.21099,-68.472 C168.757209,-68.472 170.822125,-66.377 170.822125,-63.793 C170.822125,-61.208 168.757209,-59.111 166.21099,-59.111 C164.182414,-59.111 162.463131,-60.443 161.846967,-62.291 L159.178,-62.291 L159.178,-50.281 L161.789631,-50.281 C162.354919,-52.219 164.11781,-53.636 166.21099,-53.636 C168.757209,-53.636 170.822125,-51.539 170.822125,-48.955 C170.822125,-46.371 168.757209,-44.275 166.21099,-44.275 C164.182414,-44.275 162.463131,-45.607 161.846967,-47.453 L159.178,-47.453 L159.178,-35.444 L161.789631,-35.444 C162.354919,-37.383 164.11781,-38.8 166.21099,-38.8 C168.757209,-38.8 170.822125,-36.704 170.822125,-34.119 C170.822125,-31.534 168.757209,-29.439 166.21099,-29.439 C164.182414,-29.439 162.463131,-30.771 161.846967,-32.618 L159.178,-32.618 L159.178,-20.608 L161.789631,-20.608 C162.354919,-22.547 164.11781,-23.963 166.21099,-23.963 C168.757209,-23.963 170.822125,-21.867 170.822125,-19.283 C170.822125,-16.698 168.757209,-14.601 166.21099,-14.601 C164.182414,-14.601 162.463131,-15.933 161.846967,-17.781 L159.178,-17.781 L159.178,-5.771 L161.789631,-5.771 C162.354919,-7.711 164.11781,-9.127 166.21099,-9.127 C168.757209,-9.127 170.822125,-7.031 170.822125,-4.445 C170.822125,-1.862 168.757209,0.235 166.21099,0.235 C164.182414,0.235 162.463131,-1.097 161.846967,-2.945 L159.178,-2.945 L159.178,9.065 L161.789631,9.065 C162.354919,7.127 164.11781,5.71 166.21099,5.71 C168.757209,5.71 170.822125,7.806 170.822125,10.391 C170.822125,12.975 168.757209,15.071 166.21099,15.071 C164.182414,15.071 162.463131,13.738 161.846967,11.891 L159.178,11.891 L159.178,23.901 L161.789631,23.901 C162.354919,21.963 164.11781,20.546 166.21099,20.546 C168.757209,20.546 170.822125,22.642 170.822125,25.228 C170.822125,27.812 168.757209,29.907 166.21099,29.907 C164.182414,29.907 162.463131,28.575 161.846967,26.728 L159.178,26.728 L159.178,38.737 L161.789631,38.737 C162.354919,36.8 164.11781,35.382 166.21099,35.382 C168.757209,35.382 170.822125,37.479 170.822125,40.064 C170.822125,42.648 168.757209,44.743 166.21099,44.743 C164.182414,44.743 162.463131,43.411 161.846967,41.564 L159.178,41.564 L159.178,53.574 L161.789631,53.574 C162.354919,51.636 164.11781,50.219 166.21099,50.219 C168.757209,50.219 170.822125,52.314 170.822125,54.9 C170.822125,57.484 168.757209,59.579 166.21099,59.579 C164.182414,59.579 162.463131,58.247 161.846967,56.4 L159.178,56.4 L159.178,68.41 L161.789631,68.41 C162.354919,66.472 164.11781,65.055 166.21099,65.055 C168.757209,65.055 170.822125,67.152 170.822125,69.736 C170.822125,72.32 168.757209,74.416 166.21099,74.416 C164.182414,74.416 162.463131,73.084 161.846967,71.238 L159.178,71.238 L159.178,83.248 L161.789631,83.248 C162.354919,81.308 164.11781,79.892 166.21099,79.892 C168.757209,79.892 170.822125,81.986 170.822125,84.572 C170.822125,87.158 168.757209,89.254 166.21099,89.254 C164.182414,89.254 162.463131,87.92 161.846967,86.074 L159.178,86.074 L159.178,98.084 L161.789631,98.084 C162.354919,96.144 164.11781,94.728 166.21099,94.728 C168.757209,94.728 170.822125,96.824 170.822125,99.408 C170.822125,101.994 168.757209,104.09 166.21099,104.09 C164.182414,104.09 162.463131,102.758 161.846967,100.91 L159.178,100.91 L159.178,112.92 L161.789631,112.92 C162.354919,110.98 164.11781,109.564 166.21099,109.564 C168.757209,109.564 170.822125,111.66 170.822125,114.246 C170.822125,116.83 168.757209,118.925 166.21099,118.925 C164.182414,118.925 162.463131,117.593 161.846967,115.746 L159.178,115.746 L159.178,127.756 L161.789631,127.756 C162.354919,125.818 164.11781,124.4 166.21099,124.4 C168.757209,124.4 170.822125,126.496 170.822125,129.082 C170.822125,131.666 168.757209,133.761 166.21099,133.761 C164.182414,133.761 162.463131,132.431 161.846967,130.582 L159.178,130.582 L159.178,142.593 L161.789631,142.593 C162.354919,140.654 164.11781,139.238 166.21099,139.238 C168.757209,139.238 170.822125,141.332 170.822125,143.918 C170.822125,146.504 168.757209,148.597 166.21099,148.597 C164.182414,148.597 162.463131,147.265 161.846967,145.42 L159.178,145.42 L159.178,157.429 L161.789631,157.429 C162.354919,155.49 164.11781,154.074 166.21099,154.074 C168.757209,154.074 170.822125,156.17 170.822125,158.754 C170.822125,161.34 168.757209,163.435 166.21099,163.435 C164.182414,163.435 162.463131,162.103 161.846967,160.256 L159.178,160.256 L159.178,172.265 L161.789631,172.265 C162.354919,170.326 164.11781,168.91 166.21099,168.91 C168.757209,168.91 170.822125,171.006 170.822125,173.59 C170.822125,176.176 168.757209,178.271 166.21099,178.271 C164.182414,178.271 162.463131,176.939 161.846967,175.092 L159.178,175.092 L159.178,182.178 L181.822,182.178 L181.822,-158.822 L159.178,-158.822 L159.178,-154.134 L161.789631,-154.134 Z" id="Fill-6432-Copy" transform="translate(170.500000, 11.678000) rotate(90.000000) translate(-170.500000, -11.678000) "></path>
        </g>
    </g>
</svg>