<?xml version="1.0" encoding="utf-8"?>
<!-- Generator: Adobe Illustrator 22.0.1, SVG Export Plug-In . SVG Version: 6.00 Build 0)  -->
<svg version="1.1" id="Layer_1" xmlns="http://www.w3.org/2000/svg" xmlns:xlink="http://www.w3.org/1999/xlink" x="0px" y="0px"
	 viewBox="0 0 1008 162.4" style="enable-background:new 0 0 1008 162.4;" xml:space="preserve">
<style type="text/css">
	.st0{fill:#3B79F2;}
	.st1{fill:none;stroke:#FFFFFF;stroke-width:7;stroke-linecap:round;stroke-linejoin:round;stroke-miterlimit:10;}
	.st2{fill:none;stroke:#FFFFFF;stroke-width:4;stroke-linejoin:round;stroke-miterlimit:10;}
	.st3{fill:none;stroke:#FFFFFF;stroke-width:2.4973;stroke-linecap:round;stroke-linejoin:round;stroke-miterlimit:10;}
	.st4{fill:none;stroke:#FFFFFF;stroke-width:5;stroke-linejoin:round;stroke-miterlimit:10;}
	.st5{fill:#FFFFFF;}
	.st6{fill:none;stroke:#FFFFFF;stroke-width:2.5;stroke-linejoin:round;stroke-miterlimit:10;}
	.st7{fill:none;stroke:#FFFFFF;stroke-width:3.1223;stroke-linejoin:round;stroke-miterlimit:10;}
	.st8{fill:none;stroke:#FFFFFF;stroke-width:7;stroke-linejoin:round;stroke-miterlimit:10;}
	.st9{fill:none;stroke:#FFFFFF;stroke-width:3.1443;stroke-linejoin:round;stroke-miterlimit:10;}
	.st10{fill:none;stroke:#FFFFFF;stroke-width:6;stroke-linejoin:round;stroke-miterlimit:10;}
	.st11{fill:none;stroke:#FFFFFF;stroke-width:3.966;stroke-linejoin:round;stroke-miterlimit:10;}
</style>
<g>
	<g id="XMLID_4_">
		<g>
			<g>
				<path class="st5" d="M161.6,2.1c-0.1,9-0.6,42.8-31.6,61.8c-8.3,5.1-18.9,9.2-32.2,11.4c-0.2,0-0.4,0-0.6,0
					c-0.8,0-1.6-0.4-2.2-0.9l-7.8-7.8c-0.6-0.6-0.9-1.3-0.9-2.1c0-0.2,0-0.4,0-0.7c2.2-13.3,6.3-23.9,11.4-32.2
					c19-31,52.9-31.5,61.8-31.6C160.7,0,161.6,0.9,161.6,2.1z M136.9,39.8c4.2-4.2,4.2-10.9,0-15.1c-4.2-4.2-10.9-4.2-15.1,0
					c-4.2,4.2-4.2,10.9,0,15.1C126,44,132.7,44,136.9,39.8z"/>
			</g>
			<g>
				<g>
					<path class="st5" d="M129.1,70.9c-8,4.2-19.1,8.6-30.6,10.5l-1.3,0.1c0,0-0.1,0-0.1,0c0,0-0.1,0-0.1,0l0,0c0,0,0,0,0,0
						c-0.4,4.2-1.7,9.3-4.9,14.5c-1,1.7,0.2,3.9,2.2,3.8C104.6,99.2,123.3,90.4,129.1,70.9z"/>
				</g>
			</g>
			<g>
				<g>
					<path class="st5" d="M80.1,64.6L80.1,64.6C80.1,64.6,80.1,64.5,80.1,64.6c0-0.1,0-0.1,0-0.2l0.1-1.3
						c1.9-11.5,6.3-22.6,10.5-30.6C71.2,38.3,62.4,57,61.9,67.4c-0.1,2,2.1,3.2,3.8,2.2C70.8,66.4,75.9,65.1,80.1,64.6
						C80.1,64.6,80.1,64.6,80.1,64.6z"/>
				</g>
			</g>
		</g>
		<g>
			<g>
				<path class="st5" d="M76.5,118c-8.5,0-16.7-3.4-22.8-9.4c-7.8-7.8-11-19-8.7-29.7l-19.7-5l1.3-5.1l22.3,5.7
					c0.7,0.2,1.3,0.6,1.6,1.3c0.4,0.6,0.4,1.4,0.2,2.1c-3,9.6-0.5,20,6.7,27.1c6.1,6.1,14.8,8.9,23.3,7.6l0.8,5.2
					C79.9,117.9,78.2,118,76.5,118z"/>
			</g>
			<g>
				<path class="st5" d="M76.5,141c-14.1,0-28.3-5.4-39-16.1c-14.2-14.2-19.6-35-14-54.3c2.6-8.9,7.4-17.1,14-23.7
					c6.1-6.1,13.3-10.6,21.4-13.3l1.7,5c-7.3,2.5-13.8,6.5-19.3,12c0,0-0.1,0.1-0.1,0.1C35.2,56.5,30.9,63.9,28.5,72
					c-5,17.5-0.2,36.3,12.7,49.2c19.5,19.5,51.2,19.5,70.6,0c4.9-4.9,8.7-10.7,11.2-17.1l4.9,1.9c-2.8,7.1-7,13.5-12.4,18.9
					C104.8,135.7,90.7,141,76.5,141z"/>
			</g>
			<g>
				<path class="st5" d="M34.5,149.9c-4.3-2.8-8.4-6.2-12.1-9.8C-7.5,110.2-7.4,61.5,22.4,31.7C39.9,14.2,64.9,6.2,89.4,10.3
					l-0.9,5.2c-22.7-3.8-46.1,3.6-62.4,19.9c-27.8,27.8-27.9,73.1-0.1,100.9c3.4,3.4,7.2,6.5,11.3,9.2L34.5,149.9z"/>
			</g>
			<g>
				<path class="st5" d="M76.5,162.4c-6.3,0-12.7-0.8-19-2.4l1.3-5.1c19.9,5.1,41,1.3,57.9-10.2l3,4.3
					C106.9,157.9,91.8,162.4,76.5,162.4z"/>
			</g>
			<g>
				<path class="st5" d="M135.8,134.4l-4.1-3.3c13.1-15.9,18.6-36.8,15.2-57.2l5.2-0.9C155.8,94.9,149.9,117.3,135.8,134.4z"/>
			</g>
			<g>
				
					<rect x="29.2" y="30.4" transform="matrix(0.7071 -0.7071 0.7071 0.7071 -19.7159 34.5538)" class="st5" width="5.2" height="21.4"/>
			</g>
		</g>
	</g>
	<g>
		<path class="st5" d="M226.4,125.3c-5.2-4.6-7.8-10.7-7.8-18.3v-3.8c0-0.9,0.4-1.3,1.3-1.3h10c0.9,0,1.3,0.5,1.3,1.3v3.1
			c0,4.3,1.5,7.8,4.5,10.6c3,2.7,6.9,4.1,11.9,4.1c4.7,0,8.3-1.2,11-3.7c2.7-2.5,4-5.7,4-9.8c0-2.7-0.7-5-2-7
			c-1.3-2-3.3-3.8-5.9-5.5c-2.6-1.7-6.3-3.9-11.3-6.5c-5.5-2.9-9.9-5.4-13.1-7.7c-3.2-2.2-5.9-5.1-8.1-8.5
			c-2.2-3.4-3.2-7.6-3.2-12.4c0-7.6,2.5-13.5,7.4-17.8c4.9-4.3,11.5-6.5,19.6-6.5c5.8,0,10.8,1.1,15.1,3.2c4.3,2.2,7.7,5.2,10.1,9.1
			c2.4,3.9,3.6,8.4,3.6,13.6v3.1c0,0.9-0.5,1.3-1.3,1.3h-10.1c-0.9,0-1.3-0.4-1.3-1.3v-2.8c0-4.4-1.4-8-4.3-10.8
			c-2.9-2.8-6.8-4.2-11.9-4.2c-4.3,0-7.7,1.1-10.3,3.4c-2.5,2.2-3.8,5.4-3.8,9.6c0,2.7,0.6,5,1.9,6.9c1.3,1.9,3.1,3.6,5.6,5.3
			c2.5,1.6,6.2,3.7,11.1,6.3c6.2,3.5,10.9,6.4,14.2,8.6c3.2,2.2,5.9,5,7.9,8.2c2,3.2,3,7.2,3,11.7c0,7.7-2.6,13.9-7.7,18.5
			c-5.1,4.6-12,6.9-20.5,6.9C238.6,132.2,231.7,129.9,226.4,125.3z"/>
		<path class="st5" d="M318.9,72.4h-12c-0.4,0-0.5,0.2-0.5,0.5v36.7c0,3.7,0.7,6.3,2.2,7.8c1.5,1.5,3.8,2.3,6.9,2.3h2.6
			c0.9,0,1.3,0.5,1.3,1.3v8.5c0,0.9-0.5,1.3-1.3,1.3l-5.3,0.1c-6.3,0-11-1.2-14.2-3.6c-3.2-2.4-4.8-6.8-4.8-13.3V73
			c0-0.4-0.2-0.5-0.5-0.5h-6.6c-0.9,0-1.3-0.4-1.3-1.4v-7.3c0-0.9,0.4-1.3,1.3-1.3h6.6c0.4,0,0.5-0.2,0.5-0.5V46.4
			c0-0.9,0.4-1.3,1.3-1.3h9.9c0.9,0,1.3,0.5,1.3,1.3v15.5c0,0.4,0.2,0.5,0.5,0.5h12c0.9,0,1.3,0.5,1.3,1.3v7.3
			C320.2,72,319.8,72.4,318.9,72.4z"/>
		<path class="st5" d="M375.3,67.7c4.5,4.2,6.8,9.6,6.8,16.4v45.7c0,0.9-0.5,1.3-1.3,1.3h-10.3c-0.9,0-1.3-0.4-1.3-1.3v-3.9
			c0-0.4-0.2-0.5-0.7-0.3c-4.1,4.4-9.9,6.6-17.1,6.6c-5.8,0-10.7-1.6-14.8-4.7c-4.1-3.1-6.1-8.3-6.1-15.5c0-7.4,2.4-13,7.2-16.8
			c4.8-3.8,11.3-5.7,19.6-5.7h11.5c0.4,0,0.5-0.2,0.5-0.5v-3.8c0-3.9-1-6.9-3-9.2c-2-2.2-4.9-3.4-8.7-3.4c-3.1,0-5.6,0.7-7.5,2.2
			c-1.9,1.5-3.1,3.5-3.6,6c-0.1,0.8-0.6,1.2-1.5,1.2L334,81.3c-0.4,0-0.7-0.1-0.9-0.3c-0.3-0.2-0.4-0.5-0.3-0.9
			c0.5-5.6,3.1-10.1,7.6-13.6c4.5-3.5,10.2-5.2,16.9-5.2C364.8,61.4,370.8,63.5,375.3,67.7z M364.8,117.8c2.9-2.2,4.4-5.3,4.4-9
			v-8.6c0-0.4-0.2-0.5-0.5-0.5h-10.4c-4.5,0-8.1,1-10.7,3c-2.7,2-4,4.9-4,8.6c0,3.3,1,5.8,3,7.5c2,1.7,4.7,2.5,7.9,2.5
			C358.4,121.2,361.9,120,364.8,117.8z"/>
		<path class="st5" d="M432.6,63.3c0.6,0.4,0.9,0.9,0.7,1.8l-2,10.3c-0.1,0.8-0.6,1.1-1.6,0.8c-1.2-0.5-2.7-0.8-4.6-0.8
			c-0.9,0-1.6,0-2.2,0.1c-3.5,0.3-6.4,1.8-8.7,4.6c-2.3,2.8-3.4,6.3-3.4,10.4v39.4c0,0.9-0.5,1.3-1.3,1.3h-10.3
			c-0.9,0-1.3-0.4-1.3-1.3v-66c0-0.9,0.4-1.3,1.3-1.3h10.3c0.9,0,1.3,0.5,1.3,1.3v7.4c0,0.3,0.1,0.4,0.2,0.5c0.1,0,0.2,0,0.3-0.2
			c3.3-6.5,8.2-9.7,14.6-9.7C428.6,61.8,430.8,62.3,432.6,63.3z"/>
		<path class="st5" d="M473.8,72.4h-12c-0.4,0-0.5,0.2-0.5,0.5v36.7c0,3.7,0.7,6.3,2.2,7.8c1.5,1.5,3.8,2.3,6.9,2.3h2.6
			c0.9,0,1.3,0.5,1.3,1.3v8.5c0,0.9-0.5,1.3-1.3,1.3l-5.3,0.1c-6.3,0-11-1.2-14.2-3.6c-3.2-2.4-4.8-6.8-4.8-13.3V73
			c0-0.4-0.2-0.5-0.5-0.5h-6.6c-0.9,0-1.3-0.4-1.3-1.4v-7.3c0-0.9,0.4-1.3,1.3-1.3h6.6c0.4,0,0.5-0.2,0.5-0.5V46.4
			c0-0.9,0.4-1.3,1.3-1.3h9.9c0.9,0,1.3,0.5,1.3,1.3v15.5c0,0.4,0.2,0.5,0.5,0.5h12c0.9,0,1.3,0.5,1.3,1.3v7.3
			C475.1,72,474.7,72.4,473.8,72.4z"/>
		<path class="st5" d="M526.1,62.5h10.3c0.9,0,1.3,0.5,1.3,1.3v66c0,0.9-0.5,1.3-1.3,1.3h-10.3c-0.9,0-1.3-0.4-1.3-1.3v-4.2
			c0-0.2-0.1-0.3-0.2-0.4c-0.1-0.1-0.3,0-0.5,0.1c-3.2,4.5-8.1,6.7-14.8,6.7c-6.1,0-11.2-1.8-15.2-5.4c-4-3.6-6-8.8-6-15.7V63.8
			c0-0.9,0.4-1.3,1.3-1.3h10.1c0.9,0,1.3,0.5,1.3,1.3v43.7c0,4.2,1,7.5,3,9.9c2,2.3,4.9,3.5,8.7,3.5c3.7,0,6.6-1.2,8.8-3.7
			c2.2-2.5,3.3-5.8,3.3-10.1V63.8C524.8,62.9,525.2,62.5,526.1,62.5z"/>
		<path class="st5" d="M607,96.7c0,5.7-0.5,10.8-1.3,15.2c-2.6,13.5-9.9,20.2-21.9,20.2c-6.6,0-11.4-2.3-14.6-6.9
			c-0.1-0.3-0.2-0.4-0.4-0.3c-0.2,0-0.3,0.2-0.3,0.5v30.1c0,0.9-0.5,1.3-1.3,1.3h-10.3c-0.9,0-1.3-0.5-1.3-1.3V63.8
			c0-0.9,0.4-1.3,1.3-1.3h10.3c0.9,0,1.3,0.5,1.3,1.3v4.5c0,0.2,0.1,0.3,0.3,0.4c0.2,0.1,0.3,0,0.4-0.1c3.4-4.8,8.5-7.2,15.1-7.2
			c5.7,0,10.2,1.6,13.6,4.9c3.4,3.3,5.9,8.3,7.4,14.9C606.4,85.9,607,91.1,607,96.7z M593.9,96.9c0-6.3-0.5-11.2-1.6-14.8
			c-1.8-6.3-5.6-9.4-11.3-9.4c-5.4,0-9,3.1-10.8,9.3c-1.1,3.6-1.6,8.6-1.6,15c0,6.5,0.6,11.5,1.8,15.1c1.8,6,5.3,9,10.5,9
			c2.7,0,5-0.8,6.9-2.4c1.9-1.6,3.3-3.7,4.2-6.4C593.2,108.5,593.9,103.3,593.9,96.9z"/>
		<path class="st5" d="M709,43h-40.2c-0.4,0-0.5,0.2-0.5,0.5l-4.5,36.6c-0.1,0.1-0.1,0.2,0,0.3c0.1,0.1,0.2,0.2,0.4,0.2h27.5
			c0.9,0,1.3,0.5,1.1,1.3l-0.4,3.6c-0.2,0.9-0.7,1.3-1.5,1.3h-27.5c-0.4,0-0.5,0.2-0.5,0.5l-4.5,36.7c-0.1,0.1-0.1,0.2,0,0.3
			c0.1,0.1,0.2,0.2,0.4,0.2H699c0.9,0,1.3,0.5,1.1,1.3l-0.4,3.6c-0.2,0.9-0.7,1.3-1.5,1.3h-46.3c-0.5,0-0.8-0.1-1-0.4
			c-0.2-0.3-0.3-0.6-0.2-0.9L662,38c0-0.4,0.1-0.7,0.4-0.9c0.3-0.3,0.6-0.4,1.1-0.4h46.3c0.9,0,1.3,0.5,1.1,1.3l-0.4,3.6
			C710.3,42.6,709.8,43,709,43z"/>
		<path class="st5" d="M720.6,127.5c-3.5-2.9-5.2-6.6-5.2-11.1c0-0.9,0-1.6,0.1-2l0.1-1.2c0.2-0.9,0.7-1.4,1.5-1.4h4
			c0.4,0,0.8,0.1,1,0.3c0.2,0.2,0.3,0.5,0.2,0.9l-0.1,1.2c-0.5,3.2,0.6,6,3,8.3c2.5,2.3,5.9,3.4,10.2,3.4c4.2,0,7.8-1.1,10.6-3.4
			c2.8-2.3,4.5-5.2,4.9-8.8c0.3-2.5-0.2-4.6-1.3-6.3c-1.2-1.7-2.7-3-4.6-4c-1.9-1-4.6-2.2-8.1-3.5c-5.4-2-9.6-4.1-12.6-6.5
			c-3-2.3-4.5-5.8-4.5-10.4c0-6.2,2.2-11.2,6.5-14.9c4.3-3.7,9.9-5.6,16.6-5.6c5.8,0,10.3,1.4,13.6,4.3c3.3,2.8,5,6.6,5,11.3
			c0,1.1,0,1.9-0.1,2.4v0.4c-0.2,0.9-0.7,1.3-1.5,1.3h-3.9c-0.8,0-1.2-0.3-1.2-0.9l0.1-0.9c0.4-3.4-0.5-6.3-2.8-8.5
			c-2.3-2.2-5.7-3.4-10-3.4c-4.5,0-8.2,1.2-11.1,3.7c-2.9,2.5-4.3,5.6-4.3,9.5c0,3,1.1,5.2,3.2,6.7c2.2,1.5,5.6,3.2,10.3,5.1
			c3.8,1.4,6.9,2.8,9.2,4c2.4,1.2,4.4,2.9,6.1,5.1c1.7,2.2,2.5,4.9,2.5,8.1c0,6.3-2.2,11.4-6.5,15.2c-4.3,3.9-9.9,5.8-16.9,5.8
			C728.8,131.8,724.1,130.4,720.6,127.5z"/>
		<path class="st5" d="M778.6,126.9c-3.5-3.6-5.3-8.2-5.3-14c-0.1-4.4,0.3-9.7,1.1-15.9c0.5-4.7,1.5-9.9,2.8-15.8
			c1.3-5.7,4.2-10.3,8.6-13.8c4.4-3.6,9.6-5.3,15.5-5.3s10.7,1.7,14.4,5c3.6,3.3,5.5,7.5,5.6,12.4l0.1,2.4c0,0.9-0.5,1.4-1.3,1.5
			l-4.3,0.3c-0.8,0-1.2-0.4-1.2-1.2v-0.7v-0.5c0-0.4,0-0.8-0.1-1.1c-0.2-3.2-1.5-6-4-8.3c-2.5-2.3-5.8-3.4-9.7-3.4
			c-4.2,0-7.9,1.3-10.9,4c-3.1,2.7-5.1,6.1-6.1,10.3c-1.1,4.9-1.9,9.8-2.4,14.4c-0.7,6.5-1.1,11.4-1.1,14.7c0,4.2,1.2,7.6,3.6,10.2
			c2.4,2.6,5.6,3.8,9.8,3.8c4.2,0,7.9-1.2,11.1-3.7c3.1-2.5,5.1-5.5,5.9-9l0.1-0.8c0.3-0.9,0.8-1.3,1.6-1.2l4.3,0.3
			c0.4,0,0.6,0.1,0.8,0.3c0.2,0.2,0.2,0.5,0.1,0.9v0.5l-0.3,1.1l-0.3,0.5c-1.3,5-4.1,9.2-8.6,12.5c-4.5,3.3-9.6,4.9-15.6,4.9
			C786.9,132.2,782.1,130.4,778.6,126.9z"/>
		<path class="st5" d="M877.2,63.1h4.3c0.9,0,1.3,0.5,1.1,1.3l-8,65.3c-0.2,0.9-0.7,1.3-1.5,1.3h-4.3c-0.8,0-1.2-0.4-1.2-1.3
			l0.8-6.2c0.1-0.3,0.1-0.4-0.1-0.4s-0.3,0.1-0.5,0.3c-2,2.8-4.4,4.9-7.3,6.5c-2.9,1.5-6.1,2.3-9.7,2.3c-5.6,0-9.9-1.8-13.1-5.5
			c-3.2-3.7-4.7-8.7-4.7-15c0-3.3,0.4-8.1,1.2-14.4c0.8-7.3,1.7-12.6,2.6-15.9c1.5-6,4.3-10.7,8.4-14.2c4-3.4,8.9-5.1,14.6-5.1
			c7.1,0,11.9,2.9,14.4,8.8c0.2,0.2,0.3,0.2,0.5,0.2c0.1,0,0.2-0.2,0.2-0.5l0.8-6.1C875.9,63.6,876.4,63.1,877.2,63.1z M871.7,97.1
			c0.7-5.9,1.1-10.1,1.1-12.4l-0.1-3c0-4-1.1-7.2-3.2-9.6c-2.2-2.5-5.1-3.7-8.9-3.7c-4,0-7.4,1.2-10.4,3.6c-3,2.4-5,5.6-6.1,9.6
			c-1,3.3-1.9,8.5-2.8,15.5c-0.8,6.5-1.2,11.6-1.1,15.2c0.1,4,1.3,7.3,3.6,9.8c2.3,2.5,5.5,3.7,9.5,3.7c4,0,7.3-1.2,10.1-3.7
			c2.8-2.5,4.7-5.7,5.7-9.8C869.9,109,870.8,103.9,871.7,97.1z"/>
		<path class="st5" d="M944.7,97c-0.8,7.3-1.7,12.6-2.6,15.9c-1.6,6-4.5,10.8-8.5,14.2c-4,3.4-8.9,5.1-14.4,5.1
			c-7.1,0-12-2.9-14.6-8.8c-0.1-0.2-0.2-0.2-0.3-0.2c-0.1,0-0.2,0.2-0.3,0.5l-3.9,32.5c-0.2,0.9-0.7,1.3-1.5,1.3h-4.3
			c-0.8,0-1.2-0.5-1.2-1.3l11.3-91.8c0-0.4,0.1-0.7,0.4-0.9c0.3-0.3,0.6-0.4,1.1-0.4h4.3c0.4,0,0.7,0.1,0.9,0.4
			c0.2,0.3,0.3,0.6,0.2,0.9l-0.8,6.2c0,0.3,0.1,0.4,0.2,0.4c0.1,0,0.3-0.1,0.5-0.3c2-2.8,4.4-4.9,7.3-6.5c2.9-1.5,6.1-2.3,9.7-2.3
			c5.7,0,10.1,1.8,13.2,5.5c3.1,3.6,4.7,8.6,4.7,14.9C945.9,85.7,945.5,90.5,944.7,97z M937.7,97.1c0.5-4,0.9-7,1-9.2
			c0.1-2.2,0.2-4.2,0.1-6.1c0-4-1.2-7.3-3.5-9.8c-2.3-2.5-5.5-3.7-9.6-3.7c-4,0-7.3,1.2-10.1,3.7c-2.7,2.5-4.7,5.7-5.7,9.8
			c-1.1,4.4-2,9.5-2.7,15.2c-0.7,6.7-1,11.9-0.9,15.4c0.1,4,1.2,7.2,3.4,9.6c2.2,2.5,5.1,3.7,8.9,3.7c4,0,7.4-1.2,10.4-3.6
			c3-2.4,5-5.6,6.1-9.6C936.2,108.4,937.1,103.3,937.7,97.1z"/>
		<path class="st5" d="M990.6,123c2.9-1.9,5-4.5,6.5-7.8c0.4-0.7,0.9-1,1.8-0.9l3.5,0.7c0.4,0.1,0.6,0.3,0.7,0.6
			c0.1,0.3,0.1,0.7-0.1,1c-1.9,4.9-4.9,8.7-9,11.5c-4.1,2.8-8.8,4.2-14.2,4.2c-5.9,0-10.6-1.7-14.1-5.1c-3.5-3.4-5.3-7.9-5.5-13.6
			c-0.1-4,0.3-9.6,1.2-16.6c0.7-6.7,1.5-11.8,2.4-15.5c1.3-5.8,4.2-10.4,8.6-14c4.4-3.6,9.6-5.4,15.5-5.4c6.3,0,11.2,1.8,14.7,5.5
			c3.5,3.6,5.3,8.5,5.3,14.5c0,2.2-0.4,6.3-1.1,12.4c-0.2,0.8-0.4,2-0.5,3.6c0,0.4-0.1,0.7-0.4,0.9c-0.3,0.3-0.6,0.4-0.9,0.4h-36.6
			c-0.4,0-0.5,0.2-0.5,0.5c-0.7,5-1.1,9-1.1,11.9c0,4.2,1.2,7.6,3.7,10.2c2.5,2.6,5.9,3.8,10.2,3.8
			C984.4,125.9,987.7,124.9,990.6,123z M976.5,72.3c-3,2.6-5,6-6,10.3L968.7,93c0,0.4,0.1,0.5,0.4,0.5h30.4c0.4,0,0.6-0.2,0.7-0.5
			c0.5-5,0.8-8.5,0.8-10.5c0-4.1-1.2-7.5-3.6-10.1c-2.4-2.6-5.8-3.9-10-3.9C983.1,68.4,979.5,69.7,976.5,72.3z"/>
	</g>
</g>
</svg>
